#N canvas 192 213 1144 580 12;
#X obj 230 173 list;
#X obj 219 236 list split 1, f 22;
#X obj 181 506 del, f 4;
#X obj 279 313 list;
#X obj 321 487 f;
#X obj 372 488 + 1;
#X obj 519 226 spigot 1;
#X obj 393 322 t b l;
#X obj 246 78 t b l;
#X obj 434 20 inlet;
#X obj 454 169 f \$2;
#X obj 563 164 f \$1;
#X obj 374 455 f 0;
#X text 430 467 offset;
#X obj 455 72 loadbang;
#X obj 679 9 inlet;
#X text 981 5 Derek Kwan 2017;
#X text 1047 30 pdklist;
#X text 1048 55 gpl v 3;
#X text 728 3 del msgs;
#X obj 737 176 list prepend tempo;
#X obj 737 201 list trim;
#X obj 751 258 s \$0-pdkl-seqct1-delmsg;
#X obj 33 436 r \$0-pdkl-seqct1-delmsg;
#X obj 245 135 util/pdkl-bangsync;
#X msg 690 146 stop;
#X obj 215 396 util/pdkl-seqloophelp 0 \$1 \$2, f 41;
#X obj 234 200 t l b b, f 19;
#X msg 268 460 stop;
#X obj 554 528 outlet;
#X text 614 530 done;
#X obj 314 542 outlet;
#X text 370 542 count;
#X obj 247 27 inlet;
#X text 295 24 duration list;
#X text 16 4 pdkl-seqct1;
#X text 13 35 sequenced counter;
#X obj 609 63 route float sync clear tempo loop offset stepsize;
#X text 10 121 INLETS:;
#X text 491 21 syncer;
#X text 9 152 duration list/syncer/;
#X text 10 178 messages;
#X text 3 250 ARGS:;
#X text 8 275 loop(0/1)/sync(0/1);
#X text 5 336 OUTLETS:;
#X text 9 368 count/done;
#X connect 0 0 27 0;
#X connect 1 0 26 0;
#X connect 1 1 3 1;
#X connect 1 1 7 0;
#X connect 1 2 6 0;
#X connect 1 2 29 0;
#X connect 2 0 3 0;
#X connect 3 0 1 0;
#X connect 4 0 5 0;
#X connect 4 0 31 0;
#X connect 5 0 4 1;
#X connect 6 0 24 0;
#X connect 7 0 4 0;
#X connect 7 1 26 1;
#X connect 8 0 24 0;
#X connect 8 1 0 1;
#X connect 9 0 24 1;
#X connect 10 0 24 2;
#X connect 10 0 26 4;
#X connect 11 0 6 1;
#X connect 11 0 26 3;
#X connect 12 0 4 1;
#X connect 14 0 10 0;
#X connect 14 0 11 0;
#X connect 15 0 37 0;
#X connect 20 0 21 0;
#X connect 21 0 22 0;
#X connect 21 0 26 5;
#X connect 23 0 2 0;
#X connect 24 0 0 0;
#X connect 25 0 22 0;
#X connect 26 0 2 0;
#X connect 27 0 1 0;
#X connect 27 1 12 0;
#X connect 27 2 28 0;
#X connect 28 0 2 0;
#X connect 33 0 8 0;
#X connect 37 1 10 0;
#X connect 37 2 24 3;
#X connect 37 2 25 0;
#X connect 37 3 20 0;
#X connect 37 4 11 0;
#X connect 37 5 12 1;
#X connect 37 6 5 1;
#X connect 37 7 22 0;
