#N canvas 494 268 1018 681 12;
#X obj 342 140 pdcontrol;
#X obj 344 81 loadbang;
#X obj 125 65 inlet;
#X text 173 63 input list;
#X obj 342 188 t l l;
#X obj 374 230 list length;
#X obj 228 463 list split, f 30;
#X obj 91 464 list split;
#X obj 222 536 list append;
#X obj 125 89 t l l;
#X obj 162 143 list length;
#X obj 164 200 > 0;
#X obj 87 257 list prepend;
#X obj 87 281 list trim;
#X obj 87 305 route 0 1, f 33;
#X obj 353 376 min;
#X obj 162 167 t f f;
#X obj 98 420 list;
#X obj 87 329 bang;
#X obj 105 631 outlet;
#X obj 134 354 t b l, f 15;
#X obj 102 550 spigot;
#X obj 151 518 == 0;
#X obj 158 229 t f f, f 21;
#X text 33 16 pdkl-defaults;
#X obj 492 66 inlet;
#X text 548 70 new "defaults";
#X text 753 63 reset;
#X obj 704 62 inlet;
#X obj 704 86 bang;
#X text 558 252 subs first x elts of input list with "defaults";
#X text 557 312 inlet: input list;
#X text 606 335 new "defaults";
#X text 613 362 reset;
#X text 555 287 args: defaults;
#X text 555 415 outlet: subbed list;
#X msg 342 113 args 0;
#X connect 0 0 4 0;
#X connect 1 0 36 0;
#X connect 2 0 9 0;
#X connect 4 0 17 1;
#X connect 4 1 5 0;
#X connect 5 0 6 1;
#X connect 5 0 11 1;
#X connect 5 0 15 1;
#X connect 6 1 8 1;
#X connect 7 0 21 0;
#X connect 7 0 8 0;
#X connect 8 0 19 0;
#X connect 9 0 12 0;
#X connect 9 1 10 0;
#X connect 10 0 16 0;
#X connect 11 0 23 0;
#X connect 12 0 13 0;
#X connect 13 0 14 0;
#X connect 14 0 18 0;
#X connect 14 1 20 0;
#X connect 15 0 7 1;
#X connect 15 0 6 1;
#X connect 16 0 11 0;
#X connect 16 1 15 0;
#X connect 17 0 7 0;
#X connect 18 0 17 0;
#X connect 20 0 17 0;
#X connect 20 1 6 0;
#X connect 21 0 19 0;
#X connect 22 0 21 1;
#X connect 23 0 12 1;
#X connect 23 1 22 0;
#X connect 25 0 4 0;
#X connect 28 0 29 0;
#X connect 29 0 36 0;
#X connect 36 0 0 0;
