#N canvas 86 299 935 494 12;
#X obj 488 315 outlet;
#X obj 535 31 inlet;
#X obj 207 424 outlet;
#X obj 229 34 inlet;
#X text 598 26 map insert;
#X text 486 286 map send;
#X text 281 36 input;
#X text 259 402 output;
#X text 5 121 INLETS:;
#X text 6 218 OUTLETS:;
#X text 7 236 output/map send;
#X text 691 32 pdklist;
#X text 693 55 gpl v 3;
#X text 689 12 Derek Kwan 2017;
#X obj 226 105 t a b;
#X text 15 12 pdkl-map2;
#X text 14 37 map using a second list;
#X text 12 57 as arguments;
#X obj 350 36 inlet;
#X text 397 36 arg list;
#X text 5 139 input/arglist/map insert;
#X obj 235 230 pdkl-interl2;
#X obj 232 262 pdkl-drip 2;
#X obj 205 366 pdkl-fill;
#X connect 1 0 23 0;
#X connect 3 0 14 0;
#X connect 14 0 21 0;
#X connect 14 1 23 2;
#X connect 18 0 21 1;
#X connect 21 0 22 0;
#X connect 22 0 0 0;
#X connect 22 1 23 1;
#X connect 23 0 2 0;
