#N canvas 343 218 841 565 12;
#X obj 431 130 list length;
#X obj 451 212 / 2;
#X obj 470 240 i;
#X obj 208 204 until;
#X obj 215 268 f 0;
#X obj 194 306 t f b f b f;
#X obj 214 387 list;
#X obj 223 432 pdklist/pdkl-ref;
#X msg 269 232 0;
#X obj 317 90 t b b b l l;
#X obj 316 484 pdklist/pdkl-fill;
#X obj 329 265 + 1;
#X obj 412 275 + 1;
#X obj 316 509 outlet;
#X obj 345 305 sel 1;
#X text 18 41 faro shuffle;
#X text 655 53 gpl v 3;
#X text 11 141 INLET:;
#X obj 323 28 inlet;
#X text 650 15 Derek Kwan 2017;
#X text 651 34 pdklist;
#X text 9 210 OUTLET:;
#X text 12 232 output;
#X text 20 15 pdkl-faro;
#X text 7 163 input/elt size;
#X text 10 64 ARGS:;
#X text 14 86 elt size;
#X obj 533 27 inlet;
#X obj 533 52 f \$1;
#X obj 533 77 moses 1, f 12;
#X msg 556 119 1;
#X obj 442 21 loadbang;
#X obj 448 180 / 1;
#X obj 379 364 + 0;
#X text 416 363 half idx of list;
#X text 446 277 half idx + 1;
#X obj 598 169 f;
#X connect 0 0 32 0;
#X connect 1 0 2 0;
#X connect 2 0 12 0;
#X connect 2 0 33 1;
#X connect 3 0 4 0;
#X connect 4 0 5 0;
#X connect 5 0 11 0;
#X connect 5 1 6 0;
#X connect 5 2 33 0;
#X connect 5 3 6 0;
#X connect 5 4 7 1;
#X connect 6 0 7 0;
#X connect 7 0 10 0;
#X connect 8 0 4 1;
#X connect 9 0 3 0;
#X connect 9 1 8 0;
#X connect 9 2 10 2;
#X connect 9 3 6 1;
#X connect 9 4 0 0;
#X connect 10 0 13 0;
#X connect 11 0 4 1;
#X connect 11 0 14 0;
#X connect 12 0 14 1;
#X connect 14 0 3 1;
#X connect 14 0 10 1;
#X connect 18 0 9 0;
#X connect 27 0 28 0;
#X connect 28 0 29 0;
#X connect 29 0 30 0;
#X connect 29 1 36 0;
#X connect 30 0 36 0;
#X connect 31 0 28 0;
#X connect 32 0 1 0;
#X connect 33 0 7 1;
#X connect 36 0 32 1;
#X connect 36 0 7 2;
