#N canvas 611 204 1132 854 12;
#X obj 315 565 pdklist/pdkl-setf!;
#X obj 305 400 pdklist/pdkl-ref;
#X obj 533 436 pdklist/pdkl-ref;
#X obj 230 490 list;
#X obj 530 39 list length;
#X obj 298 455 t b f;
#X obj 520 182 clip 0 1;
#X obj 607 193 clip 0 1;
#X obj 540 154 f \$1;
#X obj 604 162 f \$2;
#X msg 524 221 set \$1;
#X msg 627 220 set \$1;
#X msg 591 346 5;
#X msg 426 287 3;
#X msg 236 261 3;
#X text 50 720 get val at idx 2 and save it;
#X text 57 739 get val at idx 1 and put it in idx 2;
#X text 56 767 now have list with val 1 at idx 2;
#X text 71 794 set saved val at idx 1;
#X obj 536 96 t b f;
#X obj 535 66 - 1;
#X obj 399 10 inlet;
#X obj 703 24 inlet;
#X text 758 29 idx1;
#X obj 867 24 inlet;
#X text 920 23 idx2;
#X text 17 16 pdkl-swap;
#X text 11 37 swap two indices;
#X text 17 109 INLETS:;
#X text 16 134 list/idx1/idx2;
#X text 14 195 ARGTS:;
#X text 16 218 idx1/idx2;
#X text 628 286 idx2;
#X text 316 255 idx1;
#X obj 226 306 t b f b;
#X obj 510 518 f 0;
#X obj 528 302 t l b;
#X obj 340 309 t l b;
#X obj 300 669 outlet;
#X obj 295 641 spigot 0;
#X msg 356 603 1;
#X msg 406 606 0;
#X text 454 613 close when saving idx 2;
#X text 450 634 open before last replace;
#X obj 246 169 t b l l;
#X obj 383 64 t l l;
#X connect 0 0 3 1;
#X connect 0 0 39 0;
#X connect 1 0 5 0;
#X connect 2 0 35 1;
#X connect 3 0 0 0;
#X connect 4 0 20 0;
#X connect 5 0 3 0;
#X connect 5 1 0 2;
#X connect 6 0 10 0;
#X connect 7 0 11 0;
#X connect 8 0 6 0;
#X connect 9 0 7 0;
#X connect 10 0 13 0;
#X connect 10 0 14 0;
#X connect 11 0 12 0;
#X connect 12 0 0 1;
#X connect 12 0 2 1;
#X connect 13 0 1 1;
#X connect 14 0 34 0;
#X connect 19 0 9 0;
#X connect 19 0 8 0;
#X connect 19 1 7 2;
#X connect 19 1 6 2;
#X connect 20 0 19 0;
#X connect 21 0 45 0;
#X connect 22 0 8 1;
#X connect 24 0 9 1;
#X connect 34 0 3 0;
#X connect 34 1 0 1;
#X connect 34 2 35 0;
#X connect 34 2 40 0;
#X connect 35 0 0 2;
#X connect 36 0 2 0;
#X connect 36 1 12 0;
#X connect 36 1 41 0;
#X connect 37 0 1 0;
#X connect 37 1 13 0;
#X connect 39 0 38 0;
#X connect 40 0 39 1;
#X connect 41 0 39 1;
#X connect 44 0 14 0;
#X connect 44 1 37 0;
#X connect 44 2 36 0;
#X connect 45 0 44 0;
#X connect 45 1 4 0;
#X connect 45 1 3 1;
