#N canvas 253 232 1072 630 12;
#X obj 426 32 loadbang;
#X obj 204 349 list split;
#X obj 239 260 t l l;
#X obj 342 296 list length;
#X obj 342 321 - 1;
#X msg 446 345 .;
#X obj 341 472 list split 1;
#X obj 295 32 inlet;
#X obj 329 541 outlet;
#X obj 412 549 outlet;
#X obj 332 507 symbol;
#X obj 417 508 symbol;
#X obj 172 526 symbol;
#X obj 172 555 outlet;
#X text 809 17 derek kwan;
#X text 812 56 gpl v 3;
#X text 810 34 pdklist 2020;
#X obj 341 447 pdkl-symsplit;
#X text 53 24 pdkl-pathsplit;
#X text 37 60 split path into parts;
#X text 25 219 outlets: path \, basename \, ext;
#X text 193 495 path;
#X text 312 569 basename;
#X text 409 581 ext;
#X obj 538 34 inlet;
#X text 523 78 unix/win (0/1);
#X text 335 69 input path;
#X obj 314 136 pdkl-pathsplit \$1;
#X text 10 179 inlets: input path \, unix/win (0/1);
#X text 18 118 args:unix/win (0/1) \, trailing slash (0/1);
#X obj 170 425 pdkl-dirjoin \$1 \$2;
#X text 69 199 trailing slash (0/1);
#X obj 657 44 inlet;
#X text 680 85 trailing slash (0/1);
#X connect 0 0 5 0;
#X connect 1 0 30 0;
#X connect 1 1 17 0;
#X connect 2 0 1 0;
#X connect 2 1 3 0;
#X connect 3 0 4 0;
#X connect 4 0 1 1;
#X connect 5 0 17 1;
#X connect 6 0 10 0;
#X connect 6 1 11 0;
#X connect 7 0 27 0;
#X connect 10 0 8 0;
#X connect 11 0 9 0;
#X connect 12 0 13 0;
#X connect 17 0 6 0;
#X connect 24 0 27 1;
#X connect 24 0 30 1;
#X connect 27 0 2 0;
#X connect 30 0 12 0;
#X connect 32 0 30 2;
