#N canvas 903 167 990 684 12;
#X obj 258 246 list;
#X obj 255 280 t l l, f 11;
#X obj 238 326 list split 1, f 26;
#X obj 355 602 del, f 10;
#X obj 254 629 list append;
#X obj 836 559 outlet;
#X msg 449 435 stop;
#X obj 255 68 t b l;
#X obj 437 59 loadbang;
#X obj 437 637 outlet;
#X obj 599 267 f \$2;
#X obj 367 47 inlet;
#X obj 446 149 f \$1;
#X text 399 21 num values;
#X obj 449 244 moses 1, f 13;
#X obj 252 32 inlet;
#X obj 707 67 inlet;
#X text 270 7 input;
#X text 874 525 end of seq;
#X text 8 12 pdkl-seq1;
#X text 5 38 variable length sequencer;
#X text 4 161 INLETS:;
#X text 2 181 input/num values;
#X text 9 72 ARGS:;
#X text 11 383 OUTLETS:;
#X obj 272 388 list split 1, f 27;
#X text 803 17 Derek Kwan 2017;
#X text 869 42 pdklist;
#X text 870 67 gpl v 3;
#X text 14 581 based off the list help files;
#X text 756 61 del msgs;
#X text 10 475 DELAY MSGS:;
#X text 14 495 stop/tempo "f (s)";
#X text 14 517 etc (look at [delay] help);
#X text 11 411 values/done;
#X obj 645 138 f \$3;
#X text 9 98 num values/loop(0/1)/sync(0/1);
#X text 8 246 MISC: delay msgs;
#X text 544 18 sync;
#X obj 490 314 spigot 0;
#X obj 532 45 inlet;
#X obj 271 466 t l l, f 18;
#X obj 785 218 list prepend tempo;
#X obj 785 243 list trim;
#X text 496 636 values if > 1 or bang;
#X text 128 359 filter out delay times;
#X text 170 312 iterator;
#X obj 376 530 util/pdkl-seqloophelp \$1 \$2 \$3, f 44;
#X obj 221 205 util/pdkl-bangsync;
#X obj 622 90 route float sync clear tempo loop;
#X obj 784 299 s \$0-pdkl-seq1-delmsg;
#X msg 735 207 stop;
#X obj 423 566 r \$0-pdkl-seq1-delmsg;
#X obj 515 279 + 1;
#X text 4 204 syncer/misc;
#X text 4 272 sync(0/1)/loop;
#X text -1 295 clear for syncer;
#X connect 0 0 1 0;
#X connect 1 0 2 0;
#X connect 1 1 6 0;
#X connect 2 0 25 0;
#X connect 2 1 41 0;
#X connect 2 2 5 0;
#X connect 2 2 39 0;
#X connect 3 0 4 0;
#X connect 4 0 2 0;
#X connect 6 0 3 0;
#X connect 7 0 48 0;
#X connect 7 1 0 1;
#X connect 8 0 10 0;
#X connect 8 0 12 0;
#X connect 8 0 35 0;
#X connect 10 0 39 1;
#X connect 10 0 47 3;
#X connect 11 0 12 0;
#X connect 12 0 14 0;
#X connect 12 0 47 2;
#X connect 14 1 53 0;
#X connect 15 0 7 0;
#X connect 16 0 49 0;
#X connect 25 0 47 0;
#X connect 25 1 9 0;
#X connect 35 0 48 2;
#X connect 35 0 47 4;
#X connect 39 0 48 0;
#X connect 40 0 48 1;
#X connect 41 0 4 1;
#X connect 41 1 47 1;
#X connect 42 0 43 0;
#X connect 43 0 50 0;
#X connect 43 0 47 5;
#X connect 47 0 3 0;
#X connect 48 0 0 0;
#X connect 49 1 35 0;
#X connect 49 2 51 0;
#X connect 49 2 48 3;
#X connect 49 3 42 0;
#X connect 49 4 10 0;
#X connect 49 5 50 0;
#X connect 51 0 50 0;
#X connect 52 0 3 0;
#X connect 53 0 2 1;
