#N canvas 438 278 1222 706 12;
#X obj 203 99 inlet;
#X obj 683 403 list length;
#X obj 642 496 clip 0 1;
#X obj 683 455 - 1;
#X obj 218 387 list;
#X obj 232 309 until;
#X obj 472 91 inlet;
#X obj 451 135 list;
#X obj 438 544 pdklist/pdkl-rpt1 1, f 31;
#X obj 442 235 list split 3;
#X obj 464 179 list;
#X obj 538 405 unpack f f f;
#X text 549 246 elt idx/num of elts/rpt num;
#X obj 554 500 clip 1 1;
#X obj 232 334 t b b;
#X obj 212 162 t b l l b b;
#X obj 453 618 outlet;
#X text 13 16 pdkl-rpt2;
#X text 10 39 a more sophisticated repeater;
#X text 16 103 ARGS:;
#X text 13 127 none;
#X text 5 210 INLETS:;
#X text 8 233 input list/spec list;
#X text 29 311 OUTLETS:;
#X text 26 343 output list;
#X text 30 444 SPEC LIST:;
#X text 24 469 3 int entries of;
#X text 27 491 - elt idx to rpt (idx 0);
#X text 27 513 - number of elts to rpt;
#X text 29 539 - number of times to rpt;
#X text 1009 5 derek kwan 2017;
#X text 1010 28 pdklist;
#X text 1009 53 gpl v 3;
#X obj 453 593 pdklist/pdkl-fill, f 21;
#X connect 0 0 15 0;
#X connect 1 0 3 0;
#X connect 1 0 13 2;
#X connect 2 0 8 3;
#X connect 3 0 2 2;
#X connect 4 0 8 0;
#X connect 5 0 14 0;
#X connect 6 0 7 1;
#X connect 7 0 10 1;
#X connect 8 0 33 0;
#X connect 9 0 11 0;
#X connect 9 1 10 1;
#X connect 9 2 5 1;
#X connect 9 2 33 1;
#X connect 10 0 9 0;
#X connect 11 0 2 0;
#X connect 11 1 13 0;
#X connect 11 2 8 1;
#X connect 13 0 8 2;
#X connect 14 0 4 0;
#X connect 14 1 10 0;
#X connect 15 0 5 0;
#X connect 15 1 4 1;
#X connect 15 2 1 0;
#X connect 15 3 33 2;
#X connect 15 4 7 0;
#X connect 33 0 16 0;
