#N canvas 873 565 1004 675 12;
#X obj 267 367 pdkl-ddrip;
#X obj 297 231 inlet;
#X text 372 238 sieve-list;
#X obj 117 223 inlet;
#X obj 103 303 pdkl-drip \$1;
#X obj 103 328 t a b;
#X obj 146 585 pdkl-fill;
#X obj 117 248 t l b;
#X obj 146 610 outlet;
#X text 21 22 pdkl-sieve - let x-sized chunks of elements through;
#X text 123 50 defined by sieve-list (nonzero = let through);
#X text 174 223 input-list;
#X text 537 24 derek kwan 2017;
#X text 539 42 pdklist;
#X text 541 65 gpl v 3;
#X obj 273 329 list;
#X obj 108 403 list prepend 0;
#X text 109 86 other elts replaced by 0 (or float of your choice);
#X obj 152 513 f \$2;
#X msg 139 461 bang;
#X obj 488 233 inlet;
#X text 40 165 inlets: input-list \, sieve-list \, replacement val
;
#X text 38 126 args: replacement val \, chunk size;
#X text 552 233 replacement val;
#X obj 703 238 inlet;
#X text 760 237 chunk size;
#X msg 326 429 0;
#X obj 267 392 != 0;
#X obj 103 432 route 1 0;
#X connect 0 0 27 0;
#X connect 0 1 26 0;
#X connect 1 0 15 1;
#X connect 3 0 7 0;
#X connect 4 0 5 0;
#X connect 4 2 6 1;
#X connect 5 0 16 0;
#X connect 5 1 0 0;
#X connect 6 0 8 0;
#X connect 7 0 4 0;
#X connect 7 1 6 2;
#X connect 7 1 15 0;
#X connect 15 0 0 1;
#X connect 16 0 28 0;
#X connect 18 0 6 0;
#X connect 19 0 18 0;
#X connect 20 0 18 1;
#X connect 24 0 4 1;
#X connect 26 0 16 1;
#X connect 27 0 16 1;
#X connect 28 0 6 0;
#X connect 28 1 19 0;
