#N canvas 202 431 1230 602 12;
#X obj 355 33 inlet;
#X obj 420 106 list length;
#X obj 417 189 i;
#X obj 432 155 / 2;
#X obj 278 227 f;
#X obj 352 228 + 1;
#X obj 333 311 sel 1;
#X obj 277 343 * 1;
#X obj 281 454 list;
#X obj 278 406 t b f;
#X obj 355 68 t b a a b, f 20;
#X msg 318 185 0;
#X obj 278 375 + 0;
#X obj 485 325 clip 0 1;
#X obj 279 131 until;
#X obj 619 36 inlet;
#X obj 619 86 moses 1, f 17;
#X msg 616 122 1;
#X obj 875 34 inlet;
#X obj 619 61 i \$1;
#X obj 605 256 i \$2;
#X text 930 34 offset;
#X text 410 31 input list;
#X obj 270 562 outlet;
#X text 10 15 pdkl-everynth;
#X text 689 35 get every nth elts;
#X text 9 44 get every nth elts;
#X text 16 165 ARGS:;
#X text 16 285 INLET:;
#X text 14 203 everynth/offset;
#X text 12 316 inputlist/everynth/offset;
#X text 24 391 OUTLET:;
#X text 18 427 output list;
#X text 1049 16 derek kwan 2017;
#X text 1053 37 pdklist;
#X text 1052 60 gpl v 3;
#X obj 556 9 loadbang;
#X obj 616 147 i;
#X obj 616 172 - 1;
#X obj 272 262 t f f;
#X obj 276 481 pdkl-ref;
#X obj 270 537 pdkl-fill;
#X connect 0 0 10 0;
#X connect 1 0 3 0;
#X connect 2 0 6 1;
#X connect 3 0 2 0;
#X connect 4 0 39 0;
#X connect 5 0 4 1;
#X connect 6 0 14 1;
#X connect 6 0 41 1;
#X connect 7 0 12 0;
#X connect 8 0 40 0;
#X connect 9 0 8 0;
#X connect 9 1 40 1;
#X connect 10 0 14 0;
#X connect 10 1 8 1;
#X connect 10 2 1 0;
#X connect 10 3 11 0;
#X connect 10 3 20 0;
#X connect 10 3 41 2;
#X connect 11 0 4 1;
#X connect 12 0 9 0;
#X connect 13 0 12 1;
#X connect 14 0 4 0;
#X connect 15 0 19 0;
#X connect 16 0 17 0;
#X connect 16 1 37 0;
#X connect 17 0 37 0;
#X connect 18 0 20 0;
#X connect 19 0 16 0;
#X connect 20 0 13 0;
#X connect 36 0 19 0;
#X connect 37 0 3 1;
#X connect 37 0 38 0;
#X connect 37 0 7 1;
#X connect 38 0 13 2;
#X connect 39 0 6 0;
#X connect 39 1 7 0;
#X connect 39 1 5 0;
#X connect 40 0 41 0;
#X connect 41 0 23 0;
