#N canvas 555 225 1008 605 12;
#X obj 240 56 inlet;
#X obj 238 119 route float symbol;
#X obj 530 74 inlet;
#X obj 530 99 route float symbol;
#X obj 238 144 t f b;
#X obj 470 132 t f b;
#X msg 455 190 1;
#X text 600 50 let 1 = float \, 2 = symbol;
#X text 604 68 for type compare;
#X text 422 239 typecmp;
#X msg 285 189 1;
#X obj 334 243 ==;
#X obj 578 133 t s b;
#X msg 518 185 2;
#X obj 313 150 t s b;
#X msg 329 188 2;
#X obj 285 473 ==;
#X obj 334 268 t f f;
#X obj 456 349 sel 0;
#X obj 374 520 outlet;
#X msg 401 444 0;
#X obj 242 360 spigot;
#X obj 389 363 spigot;
#X obj 240 81 t a b;
#X msg 404 97 0;
#X obj 489 404 pdklist/pdkl-symcmp;
#X text 391 269 don't bother comparing if types not equal;
#X text 14 9 pdkl-eltcmp;
#X text 13 30 compare elements for equality;
#X text 6 237 OUTLETS:;
#X text 2 260 true or false;
#X text 11 169 INLETS:;
#X text 10 188 elt1/elt2;
#X text 15 124 ARGS:;
#X text 831 6 derek kwan 2017;
#X text 831 23 pdklist;
#X text 829 43 gpl v 3;
#X connect 0 0 23 0;
#X connect 1 0 4 0;
#X connect 1 1 14 0;
#X connect 2 0 3 0;
#X connect 3 0 5 0;
#X connect 3 1 12 0;
#X connect 4 0 21 0;
#X connect 4 1 10 0;
#X connect 5 0 16 1;
#X connect 5 1 6 0;
#X connect 6 0 11 1;
#X connect 10 0 11 0;
#X connect 11 0 17 0;
#X connect 12 0 25 1;
#X connect 12 1 13 0;
#X connect 13 0 11 1;
#X connect 14 0 22 0;
#X connect 14 1 15 0;
#X connect 15 0 11 0;
#X connect 16 0 19 0;
#X connect 17 0 21 1;
#X connect 17 0 22 1;
#X connect 17 1 18 0;
#X connect 18 0 20 0;
#X connect 20 0 19 0;
#X connect 21 0 16 0;
#X connect 22 0 25 0;
#X connect 23 0 1 0;
#X connect 23 1 24 0;
#X connect 24 0 22 1;
#X connect 24 0 21 1;
#X connect 25 0 19 0;
