#N canvas 510 251 896 655 12;
#X obj 341 245 list split 1;
#X obj 400 359 list;
#X obj 324 297 t b a;
#X obj 238 119 inlet;
#X obj 313 354 outlet;
#X obj 485 358 outlet;
#X text 652 52 gpl v 3;
#X text 292 114 list;
#X text 496 332 done bang;
#X text 241 340 elts;
#X text 10 149 INLETS:;
#X text 9 224 OUTLETS:;
#X text 9 243 elts/donebang;
#X text 649 16 Derek Kwan 2017;
#X text 652 34 pdklist;
#X text 25 11 pdkl-drip - output by element of var size forward;
#X obj 471 109 inlet;
#X text 526 108 elt size;
#X obj 471 134 f \$1;
#X obj 471 159 moses 1;
#X msg 471 184 1;
#X obj 293 172 t b a;
#X obj 373 96 loadbang;
#X text 12 174 list/elt size;
#X text 10 85 ARGS:;
#X text 10 106 elt size;
#X connect 0 0 2 0;
#X connect 0 1 1 1;
#X connect 1 0 0 0;
#X connect 2 0 1 0;
#X connect 2 1 4 0;
#X connect 3 0 21 0;
#X connect 16 0 18 0;
#X connect 18 0 19 0;
#X connect 19 0 20 0;
#X connect 19 1 0 1;
#X connect 20 0 0 1;
#X connect 21 0 5 0;
#X connect 21 1 0 0;
#X connect 22 0 18 0;
