#N canvas 211 123 1562 880 12;
#X obj 329 53 inlet;
#X obj 576 728 pdklist/pdkl-fill;
#X obj 318 204 f;
#X msg 357 167 0;
#X obj 370 206 + 1;
#X obj 285 523 list;
#X obj 668 73 inlet;
#X obj 759 476 list;
#X obj 731 606 list split 1;
#X obj 736 568 list;
#X obj 303 140 until;
#X obj 264 568 list split 1;
#X obj 432 617 t b b;
#X obj 573 813 outlet;
#X text 17 116 list length will be at most;
#X text 27 225 ARGS:;
#X text 17 285 INLETS:;
#X text 29 385 OUTLETS:;
#X text 30 408 outputs;
#X text 1240 38 Derek Kwan 2017;
#X text 1240 67 pdklist;
#X text 1239 92 gpl v 3;
#X obj 1065 47 inlet;
#X obj 1065 72 f \$1;
#X obj 983 19 loadbang;
#X obj 444 372 + 0;
#X text 389 55 list 0;
#X text 646 42 list 1;
#X text 1086 23 starting list;
#X text 20 144 left list * 3;
#X text 22 248 starting list(0:2);
#X text 19 311 list0/list1/list2/startlist;
#X obj 816 67 inlet;
#X text 809 48 list 2;
#X obj 918 469 list;
#X obj 855 603 list split 1;
#X obj 860 565 list;
#X obj 1065 97 % 3;
#X obj 443 406 % 3;
#X obj 446 431 sel 0 1 2;
#X text 18 22 pdkl-interl3: intertwine 3 lists;
#X obj 706 138 list length;
#X obj 811 143 list length;
#X obj 792 512 list split 1;
#X obj 919 501 list split 1;
#X obj 710 161 min;
#X obj 583 144 list length;
#X obj 596 187 min;
#X obj 245 398 list split 1;
#X obj 668 98 t a a;
#X obj 816 92 t a a;
#X obj 327 98 t b a b a, f 20;
#X connect 0 0 51 0;
#X connect 1 0 13 0;
#X connect 2 0 4 0;
#X connect 2 0 25 0;
#X connect 3 0 2 1;
#X connect 4 0 2 1;
#X connect 5 0 11 0;
#X connect 6 0 49 0;
#X connect 7 0 43 0;
#X connect 8 0 1 0;
#X connect 8 1 9 1;
#X connect 9 0 8 0;
#X connect 10 0 2 0;
#X connect 11 0 1 0;
#X connect 11 1 5 1;
#X connect 11 2 12 0;
#X connect 12 0 10 1;
#X connect 12 0 1 1;
#X connect 12 1 9 0;
#X connect 22 0 23 0;
#X connect 23 0 37 0;
#X connect 24 0 23 0;
#X connect 25 0 38 0;
#X connect 32 0 50 0;
#X connect 34 0 44 0;
#X connect 35 0 1 0;
#X connect 35 1 36 1;
#X connect 36 0 35 0;
#X connect 37 0 25 1;
#X connect 38 0 39 0;
#X connect 39 0 5 0;
#X connect 39 1 9 0;
#X connect 39 2 36 0;
#X connect 41 0 45 0;
#X connect 42 0 45 1;
#X connect 43 0 9 1;
#X connect 44 0 36 1;
#X connect 45 0 47 1;
#X connect 46 0 47 0;
#X connect 47 0 48 1;
#X connect 47 0 43 1;
#X connect 47 0 44 1;
#X connect 48 0 5 1;
#X connect 49 0 7 1;
#X connect 49 1 41 0;
#X connect 50 0 34 1;
#X connect 50 1 42 0;
#X connect 51 0 10 0;
#X connect 51 1 48 0;
#X connect 51 2 3 0;
#X connect 51 2 7 0;
#X connect 51 2 1 2;
#X connect 51 2 34 0;
#X connect 51 3 46 0;
