#N canvas 962 221 841 565 12;
#X obj 442 161 list length;
#X obj 442 186 / 2;
#X obj 480 214 i;
#X obj 208 204 until;
#X obj 215 268 f 0;
#X obj 194 306 t f b f b f;
#X obj 240 360 list;
#X obj 223 432 pdklist/pdkl-ref;
#X msg 269 232 0;
#X obj 317 90 t b b b l l;
#X obj 379 364 + 1;
#X obj 316 484 pdklist/pdkl-fill;
#X obj 329 265 + 1;
#X obj 412 252 + 1;
#X obj 316 509 outlet;
#X obj 345 305 sel 1;
#X text 20 15 pdkl-faro;
#X text 18 41 faro shuffle;
#X text 650 15 Derek Kwan 2016;
#X text 655 40 gpl v 3;
#X text 14 86 INLET:;
#X text 10 108 list;
#X obj 323 28 inlet;
#X connect 0 0 1 0;
#X connect 1 0 2 0;
#X connect 2 0 10 1;
#X connect 2 0 13 0;
#X connect 3 0 4 0;
#X connect 4 0 5 0;
#X connect 5 0 12 0;
#X connect 5 1 6 0;
#X connect 5 2 10 0;
#X connect 5 3 6 0;
#X connect 5 4 7 1;
#X connect 6 0 7 0;
#X connect 7 0 11 0;
#X connect 8 0 4 1;
#X connect 9 0 3 0;
#X connect 9 1 8 0;
#X connect 9 2 11 2;
#X connect 9 3 6 1;
#X connect 9 4 0 0;
#X connect 10 0 7 1;
#X connect 11 0 14 0;
#X connect 12 0 4 1;
#X connect 12 0 15 0;
#X connect 13 0 15 1;
#X connect 15 0 3 1;
#X connect 15 0 11 1;
#X connect 22 0 9 0;
