#N canvas 501 165 1122 412 12;
#X obj 240 99 until;
#X obj 193 319 pdklist/pdkl-fill;
#X obj 200 141 f 0;
#X obj 309 138 + 1;
#X obj 763 130 moses 1;
#X msg 762 161 1;
#X obj 268 243 sel 1;
#X obj 255 47 t b b b, f 22;
#X obj 312 178 t f f;
#X obj 192 174 t f f, f 6;
#X obj 193 344 outlet;
#X obj 257 15 inlet;
#X text 306 10 trigger;
#X obj 673 13 inlet;
#X text 726 8 upper-lim;
#X obj 763 94 f \$2;
#X obj 472 28 inlet;
#X text 469 7 lower-lim;
#X text 842 115 upper-limit default;
#X obj 465 162 expr min($f1 \, $f2) \; max($f1+1 \, $f2);
#X obj 474 83 f \$1;
#X obj 571 12 loadbang;
#X obj 568 49 t b b;
#X msg 465 203 set \$1;
#X msg 337 91 0;
#X text 10 11 pdkl-cup;
#X text 11 38 makes list counting up;
#X text 17 85 INLETS:;
#X text 15 108 trig/lower/upper;
#X text 14 202 ARGS:;
#X text 11 225 lower/upper;
#X text 969 9 Derek Kwan 2016;
#X text 1026 35 gpl v 3;
#X obj 664 49 t b f;
#X connect 0 0 2 0;
#X connect 1 0 10 0;
#X connect 2 0 9 0;
#X connect 3 0 8 0;
#X connect 4 0 5 0;
#X connect 4 1 19 1;
#X connect 5 0 19 1;
#X connect 6 0 1 1;
#X connect 6 0 0 1;
#X connect 7 0 0 0;
#X connect 7 1 24 0;
#X connect 7 2 1 2;
#X connect 8 0 6 0;
#X connect 8 1 2 1;
#X connect 9 0 3 0;
#X connect 9 1 1 0;
#X connect 11 0 7 0;
#X connect 13 0 33 0;
#X connect 15 0 4 0;
#X connect 16 0 20 0;
#X connect 19 0 23 0;
#X connect 19 1 6 1;
#X connect 20 0 19 0;
#X connect 21 0 22 0;
#X connect 22 0 20 0;
#X connect 22 1 15 0;
#X connect 23 0 24 0;
#X connect 24 0 2 1;
#X connect 33 0 19 0;
#X connect 33 1 19 1;
