#N canvas 511 271 1289 696 12;
#X obj 329 17 inlet;
#X obj 380 528 pdklist/pdkl-fill;
#X obj 323 355 list;
#X obj 521 30 inlet;
#X obj 583 257 list;
#X obj 574 425 list split 1;
#X obj 566 354 list;
#X obj 273 446 list split 1;
#X obj 431 452 t b b;
#X obj 377 613 outlet;
#X text 17 116 list length will be at most;
#X text 20 144 left list * 2;
#X text 27 225 ARGS:;
#X text 17 285 INLETS:;
#X text 29 385 OUTLETS:;
#X text 30 408 outputs;
#X text 1058 22 Derek Kwan 2017;
#X text 1058 51 pdklist;
#X text 1057 76 gpl v 3;
#X text 22 248 starting list(0/1);
#X text 19 311 list 0/ list 1/starting list;
#X obj 785 49 inlet;
#X obj 785 74 f \$1;
#X obj 785 99 % 2;
#X obj 703 21 loadbang;
#X text 389 19 list 0;
#X text 526 5 list 1;
#X text 806 25 starting list;
#X text 18 22 pdkl-interl2: intertwine 2 lists;
#X obj 750 164 list length;
#X obj 521 55 t l l;
#X obj 705 241 min;
#X obj 628 181 list length;
#X obj 330 54 t b l b l, f 20;
#N canvas 1 99 750 589 pdkl-interl2-listalt 0;
#X obj 111 408 outlet;
#X obj 305 415 outlet;
#X obj 609 44 inlet;
#X obj 78 40 inlet;
#X text 655 44 reset;
#X obj 283 53 inlet;
#X text 324 49 stop;
#X obj 415 48 inlet;
#X text 456 32 starting list;
#X text 127 35 start;
#X obj 157 200 f;
#X msg 196 163 0;
#X obj 230 196 + 1;
#X obj 294 262 % 2;
#X obj 259 300 sel 0 1;
#X obj 142 136 until;
#X obj 295 228 + 0;
#X connect 2 0 11 0;
#X connect 3 0 15 0;
#X connect 5 0 15 1;
#X connect 7 0 16 1;
#X connect 10 0 12 0;
#X connect 10 0 16 0;
#X connect 11 0 10 1;
#X connect 12 0 10 1;
#X connect 13 0 14 0;
#X connect 14 0 0 0;
#X connect 14 1 1 0;
#X connect 15 0 10 0;
#X connect 16 0 13 0;
#X restore 306 203 pd pdkl-interl2-listalt;
#X obj 583 309 list split 1;
#X obj 339 285 list split 1;
#X connect 0 0 33 0;
#X connect 1 0 9 0;
#X connect 2 0 7 0;
#X connect 3 0 30 0;
#X connect 4 0 35 0;
#X connect 5 0 1 0;
#X connect 5 1 6 1;
#X connect 6 0 5 0;
#X connect 7 0 1 0;
#X connect 7 1 2 1;
#X connect 7 2 8 0;
#X connect 8 0 1 1;
#X connect 8 0 34 1;
#X connect 8 1 6 0;
#X connect 21 0 22 0;
#X connect 22 0 23 0;
#X connect 23 0 34 2;
#X connect 24 0 22 0;
#X connect 29 0 31 1;
#X connect 30 0 4 1;
#X connect 30 1 29 0;
#X connect 31 0 35 1;
#X connect 31 0 36 1;
#X connect 32 0 31 0;
#X connect 33 0 34 0;
#X connect 33 1 36 0;
#X connect 33 2 4 0;
#X connect 33 2 1 2;
#X connect 33 2 34 3;
#X connect 33 3 32 0;
#X connect 34 0 2 0;
#X connect 34 1 6 0;
#X connect 35 0 6 1;
#X connect 36 0 2 1;
