#N canvas 689 247 937 846 12;
#X obj 238 119 inlet;
#X text 652 52 gpl v 3;
#X text 292 114 list;
#X text 10 149 INLETS:;
#X text 9 224 OUTLETS:;
#X text 649 16 Derek Kwan 2017;
#X text 652 34 pdklist;
#X text 25 11 pdkl-drip - output by element of var size forward;
#X obj 471 109 inlet;
#X text 526 108 elt size;
#X obj 471 134 f \$1;
#X obj 373 96 loadbang;
#X text 12 174 list/elt size;
#X text 10 85 ARGS:;
#X text 10 106 elt size;
#X obj 470 195 max 1;
#X obj 238 143 route bang;
#X obj 229 568 list store, f 29;
#X obj 208 312 until;
#X obj 226 198 t b b, f 6;
#X obj 356 276 list length;
#X obj 230 370 f;
#X obj 471 158 int;
#X obj 277 371 + 1;
#X obj 211 249 spigot 0;
#X obj 345 338 > 0;
#X msg 273 312 0;
#X obj 235 472 pack f f;
#X msg 235 519 get \$1 \$2;
#X obj 222 643 outlet;
#X obj 468 639 outlet;
#X text 527 640 done;
#X text 275 640 dripped;
#X obj 311 212 t b a a;
#X obj 240 417 t f f;
#X obj 348 643 outlet;
#X text 397 640 elt num;
#X text 9 243 elts/eltnum/donebang;
#X connect 0 0 16 0;
#X connect 8 0 10 0;
#X connect 10 0 22 0;
#X connect 11 0 10 0;
#X connect 15 0 23 1;
#X connect 15 0 27 1;
#X connect 16 0 19 0;
#X connect 16 1 33 0;
#X connect 17 0 29 0;
#X connect 17 1 18 1;
#X connect 17 1 30 0;
#X connect 18 0 21 0;
#X connect 19 0 24 0;
#X connect 19 1 26 0;
#X connect 20 0 25 0;
#X connect 21 0 23 0;
#X connect 21 0 34 0;
#X connect 22 0 15 0;
#X connect 23 0 21 1;
#X connect 24 0 18 0;
#X connect 25 0 24 1;
#X connect 26 0 21 1;
#X connect 27 0 28 0;
#X connect 28 0 17 0;
#X connect 33 0 19 0;
#X connect 33 1 17 1;
#X connect 33 2 20 0;
#X connect 34 0 27 0;
#X connect 34 1 35 0;
