#N canvas 445 196 917 457 12;
#X obj 193 125 pdklist/pdkl-drip;
#X obj 485 208 outlet;
#X obj 362 36 inlet;
#X obj 204 317 outlet;
#X obj 198 32 inlet;
#X obj 198 76 t a b b;
#X text 411 37 map insert;
#X text 483 179 map send;
#X text 250 34 input;
#X text 256 295 output;
#X text 5 121 INLETS:;
#X text 5 139 input/map insert;
#X text 6 218 OUTLETS:;
#X text 7 236 output/map send;
#X text 691 32 pdklist;
#X text 693 55 gpl v 3;
#X text 689 12 Derek Kwan 2017;
#X obj 202 259 pdklist/pdkl-rfill;
#X text 15 12 pdkl-rmap - list map;
#X text 13 35 in reverse order;
#X connect 0 0 1 0;
#X connect 0 1 17 1;
#X connect 2 0 17 0;
#X connect 4 0 5 0;
#X connect 5 0 0 0;
#X connect 5 1 17 2;
#X connect 17 0 3 0;
