#N canvas 182 530 1180 560 12;
#X obj 150 63 inlet;
#X obj 366 64 inlet;
#X text 205 65 iter-trigger;
#X text 427 60 iterated list;
#X obj 214 238 list;
#X obj 220 289 list split 1;
#X obj 566 63 inlet;
#X msg 150 88 bang;
#X text 17 13 pdkl-ddrip;
#X text 21 40 drip list on demand;
#X text 618 63 drip chunk;
#X obj 566 88 f \$1;
#X obj 221 459 outlet;
#X text 18 148 ARGS:;
#X text 12 235 INLETS:;
#X text 20 347 OUTLETS:;
#X obj 361 466 outlet;
#X text 381 446 done;
#X text 16 373 output/done;
#X text 230 428 output;
#X obj 676 16 loadbang;
#X text 970 13 derek kwan 2017;
#X text 972 31 pdklist;
#X text 974 54 gpl v 3;
#X text 12 175 dripchunk;
#X text 10 262 trigger/list/chunk;
#X obj 548 130 max 1;
#X connect 0 0 7 0;
#X connect 1 0 4 1;
#X connect 4 0 5 0;
#X connect 5 0 12 0;
#X connect 5 1 4 1;
#X connect 5 2 16 0;
#X connect 6 0 11 0;
#X connect 7 0 4 0;
#X connect 11 0 26 0;
#X connect 20 0 11 0;
#X connect 26 0 5 1;
