#N canvas 369 453 747 608 12;
#X text 24 8 pdkl-pathjoin;
#X text 56 35 join path components;
#X obj 337 117 sel 0 1;
#X msg 337 141 47;
#X msg 374 140 92;
#X obj 403 22 inlet;
#X text 451 21 unix/win;
#X obj 396 76 f \$1;
#X obj 565 14 loadbang;
#X obj 86 93 inlet;
#X obj 87 155 pdkl-drip;
#X obj 91 324 list append;
#X obj 88 415 pdkl-fill;
#X obj 81 559 outlet;
#X text 531 82 derek kwan;
#X text 523 102 pdklist 2018;
#X text 529 121 gpl v 3;
#X obj 86 117 t a b;
#X obj 87 230 list fromsymbol;
#X obj 88 502 list tosymbol;
#X obj 355 342 print;
#X obj 337 165 t f f;
#X obj 88 439 list prepend;
#X connect 2 0 3 0;
#X connect 2 1 4 0;
#X connect 3 0 21 0;
#X connect 4 0 21 0;
#X connect 5 0 7 0;
#X connect 7 0 2 0;
#X connect 8 0 7 0;
#X connect 9 0 17 0;
#X connect 10 0 18 0;
#X connect 10 2 12 1;
#X connect 11 0 12 0;
#X connect 11 0 20 0;
#X connect 12 0 22 0;
#X connect 17 0 10 0;
#X connect 17 1 12 2;
#X connect 18 0 11 0;
#X connect 19 0 13 0;
#X connect 21 0 11 1;
#X connect 21 1 22 1;
#X connect 22 0 19 0;
