#N canvas 684 343 1356 547 12;
#X obj 150 63 inlet;
#X obj 366 64 inlet;
#X text 205 65 iter-trigger;
#X text 427 60 iterated list;
#X obj 566 63 inlet;
#X text 17 13 pdkl-ddrip;
#X text 21 40 drip list on demand;
#X obj 550 157 f \$1;
#X obj 171 469 outlet;
#X text 18 148 ARGS:;
#X text 12 235 INLETS:;
#X text 20 371 OUTLETS:;
#X obj 397 481 outlet;
#X text 408 451 done;
#X text 180 438 output;
#X obj 676 16 loadbang;
#X text 1134 12 derek kwan 2017;
#X text 1136 30 pdklist;
#X text 1138 53 gpl v 3;
#X obj 548 186 max 1;
#X obj 194 329 list store, f 33;
#X obj 292 173 + 1;
#X obj 366 88 t l b;
#X obj 289 133 f 0;
#X obj 197 159 f 0;
#X obj 194 245 pack f f;
#X obj 195 271 list prepend get;
#X obj 195 295 list trim;
#X text 613 61 drip size;
#X obj 811 171 f \$2;
#X text 12 175 drip size \, loop;
#X obj 811 195 == 1;
#X obj 453 404 spigot 0;
#X obj 402 381 t b b;
#X text 4 281 list;
#X text 2 309 dripsize;
#X text 9 334 loop;
#X obj 815 82 inlet;
#X text 866 84 loop;
#X obj 453 428 t b b;
#X obj 150 87 route bang float set;
#X text 1 258 trigger or float (or set f);
#X obj 287 477 outlet;
#X text 302 450 elt num;
#X obj 188 195 t f f f;
#X obj 548 210 t f f;
#X obj 291 388 / 1;
#X obj 291 432 i;
#X text 16 397 output \, elt num \, done;
#X obj 194 353 t a b;
#X connect 0 0 40 0;
#X connect 1 0 22 0;
#X connect 4 0 7 0;
#X connect 7 0 19 0;
#X connect 15 0 7 0;
#X connect 15 0 29 0;
#X connect 19 0 45 0;
#X connect 20 0 49 0;
#X connect 20 1 33 0;
#X connect 21 0 24 1;
#X connect 22 0 20 1;
#X connect 22 1 23 0;
#X connect 23 0 24 1;
#X connect 24 0 44 0;
#X connect 25 0 26 0;
#X connect 26 0 27 0;
#X connect 27 0 20 0;
#X connect 29 0 31 0;
#X connect 31 0 32 1;
#X connect 32 0 39 0;
#X connect 33 0 12 0;
#X connect 33 1 32 0;
#X connect 37 0 29 0;
#X connect 39 0 24 0;
#X connect 39 1 23 0;
#X connect 40 0 24 0;
#X connect 40 1 24 0;
#X connect 40 2 24 1;
#X connect 44 0 25 0;
#X connect 44 1 46 0;
#X connect 44 2 21 0;
#X connect 45 0 21 1;
#X connect 45 0 25 1;
#X connect 45 1 46 1;
#X connect 46 0 47 1;
#X connect 47 0 42 0;
#X connect 49 0 8 0;
#X connect 49 1 47 0;
