#N canvas 973 242 812 596 12;
#X obj 318 100 inlet;
#X obj 473 144 inlet;
#X obj 605 152 inlet;
#X obj 307 205 pdkl-drip \$2;
#X obj 315 288 pdkl-rpt1 \$1 \$2;
#X text 5 112 ARGS:;
#X text 8 201 INLET:;
#X text 5 134 rpt times/num elts to rpt/;
#X text 0 225 input/rpt times/num elts to rpt/;
#X text 478 113 rpt times;
#X text 608 115 num elts to repeat;
#X obj 360 412 pdkl-fill;
#X obj 360 437 outlet;
#X text 2 12 pdkl-stut1 - stutter elts of a list x times in chunks
of y;
#X text 668 56 gpl v 3;
#X text 666 10 Derek Kwan 2017;
#X text 666 33 pdklist;
#X obj 318 125 t l b;
#X connect 0 0 17 0;
#X connect 1 0 4 1;
#X connect 2 0 3 1;
#X connect 2 0 4 2;
#X connect 3 0 4 0;
#X connect 3 1 11 1;
#X connect 4 0 11 0;
#X connect 11 0 12 0;
#X connect 17 0 3 0;
#X connect 17 1 11 2;
