#N canvas 512 249 896 655 12;
#X obj 336 264 list split 1;
#X obj 400 359 list;
#X obj 324 297 t b a;
#X obj 238 119 inlet;
#X obj 313 354 outlet;
#X obj 243 191 t b a;
#X obj 485 358 outlet;
#X text 652 52 gpl v 3;
#X text 292 114 list;
#X text 496 332 done bang;
#X text 241 340 elts;
#X text 10 149 INLETS:;
#X text 12 174 list;
#X text 9 224 OUTLETS:;
#X text 9 243 elts/donebang;
#X text 649 16 Derek Kwan 2017;
#X text 652 34 pdklist;
#X text 25 11 pdkl-drip - output by element forward;
#X connect 0 0 2 0;
#X connect 0 1 1 1;
#X connect 1 0 0 0;
#X connect 2 0 1 0;
#X connect 2 1 4 0;
#X connect 3 0 5 0;
#X connect 5 0 6 0;
#X connect 5 1 0 0;
