#N canvas 929 238 783 456 12;
#X obj 324 199 pdkl-intersp;
#X obj 198 15 inlet;
#X obj 334 348 list tosymbol;
#X obj 452 113 inlet;
#X obj 324 224 pdkl-drip;
#X obj 324 277 list fromsymbol;
#X obj 324 317 pdkl-fill;
#X obj 298 98 t a b;
#X text 20 52 pdkl-symjoin;
#X text 16 88 join a list by a symbol;
#X text 32 145 args: none;
#X text 42 221 outlet: joined symbol;
#X text 629 76 pdklist;
#X text 628 101 gpl v 3;
#X text 629 47 Derek Kwan 2020;
#X text 285 57 input list;
#X text 442 66 join symbol;
#X text 33 183 inlets: input list \, joiner;
#X obj 334 373 outlet;
#X connect 0 0 4 0;
#X connect 1 0 7 0;
#X connect 2 0 18 0;
#X connect 3 0 0 1;
#X connect 4 0 5 0;
#X connect 4 2 6 1;
#X connect 5 0 6 0;
#X connect 6 0 2 0;
#X connect 7 0 0 0;
#X connect 7 1 6 2;
