#N canvas 123 218 1335 639 12;
#X obj 240 99 until;
#X obj 168 514 pdklist/pdkl-fill;
#X obj 255 47 t b b b, f 22;
#X obj 168 539 outlet;
#X obj 257 15 inlet;
#X text 306 10 trigger;
#X obj 673 22 inlet;
#X text 726 8 upper-lim;
#X obj 472 28 inlet;
#X text 469 7 lower-lim;
#X obj 571 12 loadbang;
#X text 13 107 INLETS:;
#X text 14 202 ARGS:;
#X text 1211 80 gpl v 3;
#X text 1154 33 Derek Kwan 2017;
#X text 1213 57 pdklist;
#X obj 464 158 -;
#X obj 464 193 >= 0;
#X obj 583 290 == 0;
#X obj 233 370 spigot 1;
#X obj 382 360 spigot 0;
#X text 296 440 counting up;
#X text 455 432 counting down;
#X obj 201 225 f;
#X obj 290 219 + 1;
#X obj 233 395 moses 1;
#X obj 382 385 moses 1;
#X obj 201 250 t f f;
#X obj 464 218 t f f;
#X obj 428 259 sel 1 0;
#X obj 333 180 * 1;
#X msg 420 291 1;
#X msg 470 285 -1;
#X obj 334 138 f;
#X obj 470 91 f \$1;
#X obj 673 68 f \$2;
#X obj 571 37 t b b;
#X obj 891 18 inlet;
#X obj 868 70 f \$3;
#X obj 417 324 t b f;
#X obj 868 145 f;
#X text 18 4 PDKL-COUNT;
#X text 16 28 count up or down;
#X text 11 130 trig/lower/upper/stepsize;
#X text 11 225 lower/upper/stepsize;
#X text 13 400 counts down);
#X text 16 373 (note: if lower>upper \,;
#X msg 868 120 1;
#X obj 869 95 moses 1e-29;
#X obj 470 116 t b f;
#X text 952 23 stepsize;
#X obj 234 441 bang;
#X obj 683 126 + 1e-29;
#X text 16 50 in interval [lower \, upper);
#X connect 0 0 23 0;
#X connect 1 0 3 0;
#X connect 2 0 0 0;
#X connect 2 1 33 0;
#X connect 2 2 1 2;
#X connect 4 0 2 0;
#X connect 6 0 35 0;
#X connect 8 0 34 0;
#X connect 10 0 36 0;
#X connect 16 0 17 0;
#X connect 17 0 19 1;
#X connect 17 0 28 0;
#X connect 18 0 20 1;
#X connect 19 0 25 0;
#X connect 20 0 26 0;
#X connect 23 0 27 0;
#X connect 24 0 23 1;
#X connect 24 0 19 0;
#X connect 24 0 20 0;
#X connect 25 1 51 0;
#X connect 26 0 51 0;
#X connect 27 0 24 0;
#X connect 27 1 1 0;
#X connect 28 0 29 0;
#X connect 28 1 18 0;
#X connect 29 0 31 0;
#X connect 29 1 32 0;
#X connect 30 0 24 1;
#X connect 31 0 39 0;
#X connect 32 0 39 0;
#X connect 33 0 23 1;
#X connect 34 0 33 1;
#X connect 34 0 49 0;
#X connect 35 0 16 0;
#X connect 35 0 25 1;
#X connect 35 0 52 0;
#X connect 36 0 35 0;
#X connect 36 1 38 0;
#X connect 36 1 34 0;
#X connect 37 0 38 0;
#X connect 38 0 48 0;
#X connect 39 0 30 0;
#X connect 39 1 30 1;
#X connect 40 0 30 0;
#X connect 47 0 40 0;
#X connect 48 0 47 0;
#X connect 48 1 40 0;
#X connect 49 0 16 0;
#X connect 49 1 16 1;
#X connect 51 0 1 1;
#X connect 51 0 0 1;
#X connect 52 0 26 1;
