#N canvas 160 130 1027 832 12;
#X obj 272 261 list split 1;
#X obj 358 320 list split 1;
#X text 20 45 set nth elt of list to given float val;
#X obj 389 359 t b l;
#X obj 363 431 list append;
#X obj 277 483 list append;
#X obj 412 516 spigot;
#X obj 411 129 moses 0;
#X obj 480 313 == 0;
#X obj 277 612 outlet;
#X obj 752 53 inlet;
#X obj 418 24 inlet;
#X obj 488 16 loadbang;
#X obj 271 80 inlet;
#X text 757 29 replace;
#X text 380 24 idx;
#X text 19 121 INLETS:;
#X text 854 61 gpl v 3;
#X obj 411 104 f \$1;
#X text 851 15 Derek Kwan 2017;
#X text 852 42 pdklist;
#X text 23 77 args:;
#X text 25 101 idx/eltsize;
#X obj 363 406 list;
#X obj 602 36 inlet;
#X obj 601 85 f \$2;
#X obj 601 110 moses 1;
#X msg 602 151 1;
#X obj 593 388 list split 1;
#X text 627 12 elt size;
#X obj 410 243 * 1;
#X obj 602 176 t b f;
#X obj 488 41 t b b;
#X text 20 5 pdkl-set!;
#X text 12 142 input/idx/eltsize;
#X text 15 187 OUTLETS:;
#X text 14 212 output;
#X connect 0 0 5 0;
#X connect 0 1 1 0;
#X connect 1 1 3 0;
#X connect 3 0 23 0;
#X connect 3 1 4 1;
#X connect 4 0 5 1;
#X connect 4 0 6 0;
#X connect 5 0 9 0;
#X connect 6 0 9 0;
#X connect 7 1 8 0;
#X connect 7 1 30 0;
#X connect 8 0 6 1;
#X connect 10 0 28 0;
#X connect 11 0 18 0;
#X connect 12 0 32 0;
#X connect 13 0 0 0;
#X connect 18 0 7 0;
#X connect 23 0 4 0;
#X connect 24 0 25 0;
#X connect 25 0 26 0;
#X connect 26 0 27 0;
#X connect 26 1 31 0;
#X connect 27 0 31 0;
#X connect 28 0 23 1;
#X connect 30 0 0 1;
#X connect 31 0 30 0;
#X connect 31 1 28 1;
#X connect 31 1 1 1;
#X connect 31 1 30 1;
#X connect 32 0 18 0;
#X connect 32 1 25 0;
