#N canvas 682 151 1124 772 12;
#X obj 225 177 pdkl-drip, f 32;
#X obj 262 292 t f f;
#X obj 244 66 list fromsymbol;
#X obj 585 165 sel 0 1;
#X msg 585 189 47;
#X msg 622 188 92;
#X obj 647 51 inlet;
#X text 695 50 unix/win;
#X obj 604 101 f \$1;
#X obj 525 25 loadbang;
#X obj 477 471 list length;
#X obj 291 489 t a a;
#X obj 292 538 spigot;
#X obj 477 496 > 0;
#X obj 330 354 t f f;
#X obj 330 329 !=;
#X obj 278 384 spigot;
#X obj 383 378 sel 0;
#X obj 383 403 t b b;
#X obj 292 563 list tosymbol;
#X obj 226 128 t l b b, f 25;
#X obj 355 225 t b b;
#X obj 288 454 pdkl-fill, f 22;
#X obj 292 658 pdkl-fill, f 28;
#X obj 234 25 inlet;
#X text 16 227 inlets: symbol path to split \, unix/win (0/1);
#X text 27 180 args:unix/win (0/1);
#X text 818 32 derek kwan;
#X text 821 71 gpl v 3;
#X text 819 49 pdklist 2020;
#X text 40 55 pdkl-pathsplit;
#X text 31 91 split full path into components;
#X text 36 306 outlet: path in components;
#X obj 292 683 outlet;
#X obj 604 126 > 0;
#X connect 0 0 1 0;
#X connect 0 2 21 0;
#X connect 1 0 16 0;
#X connect 1 1 15 0;
#X connect 2 0 20 0;
#X connect 3 0 4 0;
#X connect 3 1 5 0;
#X connect 4 0 15 1;
#X connect 5 0 15 1;
#X connect 6 0 8 0;
#X connect 8 0 34 0;
#X connect 9 0 8 0;
#X connect 10 0 13 0;
#X connect 11 0 12 0;
#X connect 11 1 10 0;
#X connect 12 0 19 0;
#X connect 13 0 12 1;
#X connect 14 0 16 1;
#X connect 14 1 17 0;
#X connect 15 0 14 0;
#X connect 16 0 22 0;
#X connect 17 0 18 0;
#X connect 18 0 22 2;
#X connect 18 1 22 1;
#X connect 19 0 23 0;
#X connect 20 0 0 0;
#X connect 20 1 23 2;
#X connect 20 2 22 2;
#X connect 21 0 23 1;
#X connect 21 1 22 1;
#X connect 22 0 11 0;
#X connect 23 0 33 0;
#X connect 24 0 2 0;
#X connect 34 0 3 0;
