#N canvas 21 135 777 774 12;
#X obj 365 246 list;
#X obj 365 304 list;
#X obj 518 54 inlet;
#X text 520 26 clear;
#X obj 430 57 inlet;
#X text 448 31 flush;
#X obj 358 60 inlet;
#X text 347 34 input;
#X obj 365 329 outlet;
#X text 607 67 gpl v 3;
#X text 22 45 reverse fills a list with inputs;
#X obj 361 130 list append;
#X text 16 122 INLETS:;
#X text 10 148 input/flush/clear;
#X text 610 27 Derek Kwan 2017;
#X text 609 49 pdklist;
#X text 23 19 pdkl-rfill;
#X connect 0 0 1 1;
#X connect 0 0 11 1;
#X connect 1 0 8 0;
#X connect 2 0 0 0;
#X connect 4 0 1 0;
#X connect 6 0 11 0;
#X connect 11 0 0 0;
