#N canvas 225 167 856 843 12;
#X obj 247 415 f;
#X obj 304 420 +;
#X msg 377 352 0;
#X obj 251 375 t b f;
#X obj 298 764 pdkl-fill;
#X obj 256 132 t b b, f 7;
#X obj 247 187 until;
#X obj 247 226 f;
#X obj 247 251 t f b;
#X obj 244 326 *;
#X obj 310 276 random 2;
#X obj 291 311 + 1;
#X obj 312 467 moses 1, f 13;
#X obj 382 555 pack f f;
#X obj 387 504 t f f;
#X obj 382 629 route 1 0;
#X text 68 524 haven't reached limit yet;
#X obj 382 580 t b l;
#X obj 298 789 outlet;
#X obj 463 164 moses 1e-30;
#X msg 463 189 0.25;
#X obj 652 173 moses 1;
#X msg 652 198 2;
#X text 732 178 max multiple;
#X text 555 150 base number;
#X obj 330 155 moses 1;
#X msg 330 180 1;
#X obj 335 124 f \$1;
#X obj 463 122 f \$2;
#X obj 657 131 f \$3;
#X obj 337 87 inlet;
#X obj 466 87 inlet;
#X obj 656 82 inlet;
#X obj 393 35 loadbang;
#X text 716 15 derek kwan 2017;
#X text 716 38 gpl v 3;
#X text 716 63 pdklist;
#X text 5 20 pdkl-rpatt1: random pattern generator;
#X text 1 92 args: running sum limit/;
#X text 5 120 base number/ max mulitple;
#X text 5 292 base number/ max mulitple;
#X text 1 264 inlet: trig/running sum limit/;
#X text 5 357 outlets:;
#X text 6 379 output list;
#X obj 261 85 inlet;
#X obj 403 679 -;
#X obj 515 326 f;
#X text 380 127 limit;
#X obj 382 530 == 1;
#X obj 301 656 f;
#X text 481 531 ==: just add current float to list;
#X text 66 543 just add current float;
#X msg 286 606 bang;
#X text 478 552 >: subtract limit from sum and add to list;
#X connect 0 0 1 0;
#X connect 1 0 0 1;
#X connect 1 0 12 0;
#X connect 2 0 0 1;
#X connect 3 0 0 0;
#X connect 3 1 1 1;
#X connect 3 1 49 1;
#X connect 4 0 18 0;
#X connect 5 0 6 0;
#X connect 5 1 4 2;
#X connect 5 1 2 0;
#X connect 6 0 7 0;
#X connect 7 0 8 0;
#X connect 8 0 9 0;
#X connect 8 1 10 0;
#X connect 9 0 3 0;
#X connect 10 0 11 0;
#X connect 11 0 9 1;
#X connect 12 0 52 0;
#X connect 12 1 14 0;
#X connect 13 0 17 0;
#X connect 14 0 48 0;
#X connect 14 1 13 1;
#X connect 15 0 52 0;
#X connect 15 1 45 0;
#X connect 17 0 4 1;
#X connect 17 0 6 1;
#X connect 17 1 15 0;
#X connect 19 0 20 0;
#X connect 19 1 7 1;
#X connect 20 0 7 1;
#X connect 21 0 22 0;
#X connect 21 1 10 1;
#X connect 22 0 10 1;
#X connect 25 0 26 0;
#X connect 25 1 46 0;
#X connect 26 0 46 0;
#X connect 27 0 25 0;
#X connect 28 0 19 0;
#X connect 29 0 21 0;
#X connect 30 0 27 0;
#X connect 31 0 28 0;
#X connect 32 0 29 0;
#X connect 33 0 27 0;
#X connect 33 0 28 0;
#X connect 33 0 29 0;
#X connect 44 0 5 0;
#X connect 45 0 4 0;
#X connect 46 0 45 1;
#X connect 46 0 12 1;
#X connect 46 0 48 1;
#X connect 48 0 13 0;
#X connect 49 0 4 0;
#X connect 52 0 49 0;
