#N canvas 260 309 687 268 12;
#X obj 293 141 pdklist/pdkl-drip;
#X obj 308 185 pdklist/pdkl-rfill;
#X obj 290 90 t a b;
#X obj 288 37 inlet;
#X obj 308 210 outlet;
#X text 526 44 gpl v 3;
#X text 524 24 pdklist;
#X text 14 120 INLETS:;
#X text 15 140 input;
#X text 15 180 outlets:;
#X text 18 198 reversed input;
#X text 525 3 Derek Kwan 2017;
#X text 14 11 pdkl-rev - list reversal;
#X connect 0 0 1 0;
#X connect 0 1 1 1;
#X connect 1 0 4 0;
#X connect 2 0 0 0;
#X connect 2 1 1 2;
#X connect 3 0 2 0;
