#N canvas 747 312 1268 707 12;
#X obj 330 364 random, f 13;
#X obj 620 190 t b f, f 6;
#X obj 491 238 pack f f, f 13;
#X obj 491 263 t l l;
#X obj 472 341 -;
#X obj 281 416 +, f 17;
#X obj 488 70 inlet;
#X obj 616 95 inlet;
#X text 495 36 bound1;
#X text 629 62 bound2;
#X obj 694 79 loadbang;
#X obj 692 108 t b b;
#X obj 271 43 inlet;
#X obj 259 138 until;
#X obj 280 321 sel 1;
#X msg 315 150 0;
#X obj 354 181 + 1;
#X obj 266 226 t f f b;
#X obj 285 485 outlet;
#X text 8 0 pdkl-randi;
#X text 13 31 list of random integers;
#X text 14 81 ARGS:;
#X text 15 174 INLETS:;
#X text 15 256 OUTLETS:;
#X text 13 278 random list;
#X text 960 26 derek kwan 2017;
#X text 959 46 pdklist;
#X text 962 69 gpl v 3;
#X obj 471 306 max;
#X obj 541 295 min;
#X obj 285 460 pdkl-fill, f 25;
#X obj 274 108 t b b b f, f 22;
#X obj 271 68 max 1;
#X text 11 106 bound1/bound2;
#X obj 816 89 inlet;
#X text 12 196 length/bound1/bound2/messages;
#X obj 816 114 route seed;
#X msg 816 139 seed \$1;
#X text 877 91 messages;
#X text 334 58 length;
#X obj 259 175 i;
#X obj 491 169 f \$1, f 5;
#X obj 618 164 f \$2;
#X connect 0 0 5 0;
#X connect 1 0 41 0;
#X connect 1 1 2 1;
#X connect 2 0 3 0;
#X connect 3 0 28 0;
#X connect 3 1 29 0;
#X connect 4 0 0 1;
#X connect 5 0 30 0;
#X connect 6 0 41 0;
#X connect 7 0 42 0;
#X connect 10 0 11 0;
#X connect 11 0 42 0;
#X connect 11 1 41 0;
#X connect 12 0 32 0;
#X connect 13 0 40 0;
#X connect 14 0 13 1;
#X connect 14 0 30 1;
#X connect 15 0 40 1;
#X connect 16 0 17 0;
#X connect 17 0 14 0;
#X connect 17 1 40 1;
#X connect 17 2 0 0;
#X connect 28 0 4 0;
#X connect 29 0 4 1;
#X connect 29 0 5 1;
#X connect 30 0 18 0;
#X connect 31 0 13 0;
#X connect 31 1 15 0;
#X connect 31 2 30 2;
#X connect 31 3 14 1;
#X connect 32 0 31 0;
#X connect 34 0 36 0;
#X connect 36 0 37 0;
#X connect 37 0 0 0;
#X connect 40 0 16 0;
#X connect 41 0 2 0;
#X connect 42 0 1 0;
