#N canvas 68 213 795 525 12;
#X obj 497 26 inlet;
#X obj 498 57 list split 1;
#X text 552 29 compare;
#X obj 216 219 list split 1, f 22;
#X obj 226 166 list;
#X obj 263 55 t b l b;
#X obj 222 114 until, f 14;
#X obj 276 490 outlet;
#X obj 260 23 inlet;
#X text 316 27 input list;
#X text 14 14 pdkl-memq;
#X text 14 51 return sublist starting with;
#X text 15 74 comparator;
#X text 18 196 INLETS:;
#X text 14 222 input list/comparator;
#X text 26 120 ARGS:;
#X text 24 139 none;
#X text 30 275 OUTLETS:;
#X text 30 298 output list;
#X obj 286 275 t a a;
#X obj 390 293 pdklist/pdkl-eltcmp;
#X obj 252 345 spigot 0, f 22;
#X msg 435 177 0;
#X obj 256 435 list append;
#X obj 252 370 t a b;
#X connect 0 0 1 0;
#X connect 1 0 20 1;
#X connect 3 0 19 0;
#X connect 3 1 4 1;
#X connect 3 1 23 1;
#X connect 3 2 6 1;
#X connect 4 0 3 0;
#X connect 5 0 6 0;
#X connect 5 1 4 1;
#X connect 5 2 22 0;
#X connect 6 0 4 0;
#X connect 8 0 5 0;
#X connect 19 0 21 0;
#X connect 19 1 20 0;
#X connect 20 0 21 1;
#X connect 21 0 24 0;
#X connect 22 0 21 1;
#X connect 23 0 7 0;
#X connect 24 0 23 0;
#X connect 24 1 6 1;
