#N canvas 884 260 990 684 12;
#X obj 265 243 list;
#X obj 265 268 t l l, f 11;
#X obj 265 357 list split 1;
#X obj 262 533 del, f 10;
#X obj 370 479 list append;
#X obj 435 381 spigot 0;
#X obj 583 501 outlet;
#X msg 420 337 stop;
#X obj 513 46 inlet;
#X obj 255 68 t b l;
#X obj 437 85 loadbang;
#X obj 275 582 outlet;
#X text 334 581 values if > 1;
#X obj 513 182 f \$2;
#X obj 367 47 inlet;
#X obj 422 187 f \$1;
#X text 399 21 num values;
#X obj 383 239 + 1;
#X obj 382 268 moses 1, f 13;
#X obj 252 32 inlet;
#X obj 707 67 inlet;
#X text 270 7 input;
#X text 613 474 end of seq;
#X text 8 12 pdkl-seq1;
#X text 5 38 variable length sequencer;
#X text 4 161 INLETS:;
#X text 2 181 input/num values;
#X text 530 22 loop(0/1);
#X text 9 72 ARGS:;
#X text 11 383 OUTLETS:;
#X obj 264 443 list split 1;
#X text 803 17 Derek Kwan 2017;
#X text 869 42 pdklist;
#X text 870 67 gpl v 3;
#X text 14 581 based off the list help files;
#X text 756 61 del msgs;
#X text 10 475 DELAY MSGS:;
#X text 14 495 stop/tempo "f (s)";
#X text 14 517 etc (look at [delay] help);
#X text 11 411 values/done;
#N canvas 264 166 857 602 pdkl-seq1-bangsync 0;
#X obj 54 77 inlet;
#X text 113 101 incoming bangs;
#X obj 192 145 == 0;
#X obj 55 288 spigot 0;
#X obj 69 400 outlet;
#X msg 116 229 1;
#X obj 195 280 f;
#X msg 201 221 0;
#X obj 228 170 t b b;
#X text 263 258 idea: incoming bang sets flag that bang arrived;
#X obj 195 305 sel 1;
#X obj 183 369 spigot 1;
#X obj 426 100 inlet;
#X text 482 101 if we want to be syncing;
#X obj 249 107 inlet;
#X text 271 89 bang syncer;
#X text 17 9 dkbangsync - bang syncer;
#X text 12 34 Derek Kwan \, 2016 - gpl v3;
#X text 328 14 in1: incoming bangs (or clear) \, in2: bang syncer;
#X text 340 31 in3: syncing? \, in4: clear;
#X obj 705 100 inlet;
#X text 755 100 clear;
#X connect 0 0 5 0;
#X connect 0 0 3 0;
#X connect 2 0 3 1;
#X connect 3 0 4 0;
#X connect 5 0 6 1;
#X connect 6 0 10 0;
#X connect 7 0 6 1;
#X connect 8 0 7 0;
#X connect 8 1 6 0;
#X connect 10 0 11 0;
#X connect 11 0 4 0;
#X connect 12 0 2 0;
#X connect 12 0 11 1;
#X connect 14 0 8 0;
#X connect 20 0 7 0;
#X restore 204 183 pd pdkl-seq1-bangsync, f 25;
#X obj 703 100 route float sync clear;
#X obj 629 38 inlet;
#X obj 321 150 f \$3;
#X text 9 98 num values/loop(0/1)/sync(0/1);
#X text 4 204 loop(0/1)/sync(0/1)/misc;
#X text 8 246 MISC: delay msgs;
#X text 9 270 sync(0/1)/clear for syncer;
#X text 641 11 sync;
#X connect 0 0 1 0;
#X connect 1 0 2 0;
#X connect 1 1 7 0;
#X connect 2 0 30 0;
#X connect 2 1 4 1;
#X connect 2 2 6 0;
#X connect 2 2 5 0;
#X connect 3 0 4 0;
#X connect 4 0 2 0;
#X connect 5 0 40 0;
#X connect 7 0 3 0;
#X connect 8 0 13 0;
#X connect 9 0 40 0;
#X connect 9 1 0 1;
#X connect 10 0 13 0;
#X connect 10 0 15 0;
#X connect 10 0 43 0;
#X connect 13 0 5 1;
#X connect 14 0 15 0;
#X connect 15 0 17 0;
#X connect 17 0 18 0;
#X connect 18 1 2 1;
#X connect 19 0 9 0;
#X connect 20 0 41 0;
#X connect 30 0 3 0;
#X connect 30 1 11 0;
#X connect 40 0 0 0;
#X connect 41 1 43 0;
#X connect 41 2 40 3;
#X connect 41 3 3 0;
#X connect 42 0 40 1;
#X connect 43 0 40 2;
