#N canvas 412 257 738 422 12;
#X obj 267 72 inlet;
#X obj 265 97 t l b;
#X obj 239 304 outlet;
#X obj 394 306 outlet;
#X text 11 13 pdkl-dinterl2;
#X text 11 37 deinterlace into 2 lists;
#X text 23 115 ARGS:;
#X text 10 154 INLET:;
#X text 9 174 interlaced list;
#X text 23 257 OUTLETS:;
#X text 20 283 list 1/ list 2;
#X text 570 5 derek kwan 2017;
#X text 571 23 pdklist;
#X text 570 45 gpl v 3;
#X obj 253 161 pdklist/pdkl-drip 2;
#X obj 394 281 pdklist/pdkl-fill;
#X obj 239 279 pdklist/pdkl-fill;
#X obj 253 186 list split 1;
#X obj 370 203 t b b;
#X connect 0 0 1 0;
#X connect 1 0 14 0;
#X connect 1 1 15 2;
#X connect 1 1 16 2;
#X connect 14 0 17 0;
#X connect 14 1 18 0;
#X connect 15 0 3 0;
#X connect 16 0 2 0;
#X connect 17 0 16 0;
#X connect 17 1 15 0;
#X connect 18 0 16 1;
#X connect 18 1 15 1;
