#N canvas 515 267 1289 696 12;
#X obj 329 53 inlet;
#X obj 380 528 pdklist/pdkl-fill;
#X obj 318 204 f;
#X msg 357 167 0;
#X obj 370 206 + 1;
#X obj 455 266 % 2;
#X obj 323 355 list;
#X obj 571 77 inlet;
#X obj 576 145 list;
#X obj 574 425 list split 1;
#X obj 579 387 list;
#X obj 458 291 sel 0 1;
#X obj 303 140 until;
#X obj 302 400 list split 1;
#X obj 427 469 t b b;
#X obj 377 613 outlet;
#X text 17 116 list length will be at most;
#X text 20 144 left list * 2;
#X text 27 225 ARGS:;
#X text 17 285 INLETS:;
#X text 29 385 OUTLETS:;
#X text 30 408 outputs;
#X text 1058 22 Derek Kwan 2017;
#X text 1058 51 pdklist;
#X text 1057 76 gpl v 3;
#X text 22 248 starting list(0/1);
#X text 19 311 list 0/ list 1/starting list;
#X obj 785 49 inlet;
#X obj 785 74 f \$1;
#X obj 785 99 % 2;
#X obj 703 21 loadbang;
#X obj 456 232 + 0;
#X text 389 55 list 0;
#X text 576 52 list 1;
#X text 806 25 starting list;
#X obj 327 98 t b l b, f 20;
#X text 18 22 pdkl-interl2: intertwine 2 lists;
#X connect 0 0 35 0;
#X connect 1 0 15 0;
#X connect 2 0 4 0;
#X connect 2 0 31 0;
#X connect 3 0 2 1;
#X connect 4 0 2 1;
#X connect 5 0 11 0;
#X connect 6 0 13 0;
#X connect 7 0 8 1;
#X connect 8 0 10 1;
#X connect 9 0 1 0;
#X connect 9 1 10 1;
#X connect 10 0 9 0;
#X connect 11 0 6 0;
#X connect 11 1 10 0;
#X connect 12 0 2 0;
#X connect 13 0 1 0;
#X connect 13 1 6 1;
#X connect 13 2 14 0;
#X connect 14 0 12 1;
#X connect 14 0 1 1;
#X connect 14 1 10 0;
#X connect 27 0 28 0;
#X connect 28 0 29 0;
#X connect 29 0 31 1;
#X connect 30 0 28 0;
#X connect 31 0 5 0;
#X connect 35 0 12 0;
#X connect 35 1 6 1;
#X connect 35 2 3 0;
#X connect 35 2 8 0;
#X connect 35 2 1 2;
