#N canvas 792 317 997 555 12;
#X obj 310 285 random;
#X obj 598 183 t b f, f 6;
#X obj 491 217 pack f f;
#X obj 491 242 t l l;
#X obj 471 297 -;
#X obj 309 340 +;
#X obj 501 91 inlet;
#X obj 616 95 inlet;
#X text 508 57 bound1;
#X text 629 62 bound2;
#X obj 694 79 loadbang;
#X obj 692 108 t b b;
#X obj 274 83 inlet;
#X obj 274 138 until;
#X obj 491 169 f \$2, f 5;
#X obj 596 157 f \$3;
#X obj 399 63 inlet;
#X obj 398 132 moses 1;
#X obj 397 106 f \$1;
#X msg 398 157 1;
#X obj 365 248 sel 1;
#X obj 280 187 f;
#X msg 338 150 0;
#X obj 354 181 + 1;
#X obj 316 211 t f f b;
#X obj 274 108 t b b b;
#X obj 309 390 outlet;
#X text 399 34 list length;
#X text 8 0 pdkl-randi;
#X text 13 31 list of random integers;
#X text 14 81 ARGS:;
#X text 11 106 length/bound1/bound2;
#X text 15 174 INLETS:;
#X text 12 196 trigger/length/bound1/bound2;
#X text 15 256 OUTLETS:;
#X text 13 278 random list;
#X text 779 15 derek kwan 2017;
#X text 778 35 pdklist;
#X text 781 58 gpl v 3;
#X obj 471 272 max;
#X obj 541 274 min;
#X obj 309 365 pdkl-fill;
#X connect 0 0 5 0;
#X connect 1 0 14 0;
#X connect 1 1 2 1;
#X connect 2 0 3 0;
#X connect 3 0 39 0;
#X connect 3 1 40 0;
#X connect 4 0 0 1;
#X connect 5 0 41 0;
#X connect 6 0 14 0;
#X connect 7 0 15 0;
#X connect 10 0 11 0;
#X connect 11 0 15 0;
#X connect 11 0 18 0;
#X connect 11 1 14 0;
#X connect 12 0 25 0;
#X connect 13 0 21 0;
#X connect 14 0 2 0;
#X connect 15 0 1 0;
#X connect 16 0 18 0;
#X connect 17 0 19 0;
#X connect 17 1 20 1;
#X connect 18 0 17 0;
#X connect 19 0 20 1;
#X connect 20 0 13 1;
#X connect 20 0 41 1;
#X connect 21 0 23 0;
#X connect 22 0 21 1;
#X connect 23 0 24 0;
#X connect 24 0 20 0;
#X connect 24 1 21 1;
#X connect 24 2 0 0;
#X connect 25 0 13 0;
#X connect 25 1 22 0;
#X connect 25 2 41 2;
#X connect 39 0 4 0;
#X connect 40 0 4 1;
#X connect 40 0 5 1;
#X connect 41 0 26 0;
