#N canvas 554 332 978 668 12;
#X obj 218 165 list length;
#X obj 153 585 pdkl-ref, f 33;
#X obj 218 215 i;
#X obj 218 190 / 1;
#X text 485 120 eltsize;
#X obj 402 124 moses 1;
#X msg 382 148 1;
#X obj 170 78 inlet;
#X text 217 76 list;
#X obj 170 103 t l l;
#X obj 194 298 random, f 11;
#X obj 218 240 t b f;
#X obj 228 401 f -1;
#X obj 185 414 ==;
#X obj 204 270 until;
#X obj 185 469 sel 1, f 14;
#X obj 153 610 outlet;
#X obj 409 72 f \$1;
#X obj 421 24 inlet;
#X text 474 31 element size;
#X obj 601 35 inlet;
#X msg 601 60 -1;
#X obj 320 35 loadbang;
#X text 11 17 pdkl-xrndelt;
#X text 12 46 pick a non-repeating;
#X text 6 73 random elt;
#X text 30 277 ARGS:;
#X text 28 299 element size;
#X text 5 361 INLETS:;
#X text 4 382 list/eltsize/reset;
#X text 16 458 OUTLET:;
#X text 12 483 random elt;
#X text 663 31 reset;
#X obj 291 508 bang;
#X obj 263 552 f, f 10;
#X obj 181 340 t f b f;
#X text 775 6 derek kwan 2016;
#X text 779 30 pdklist;
#X text 777 54 gpl v 3;
#X connect 0 0 3 0;
#X connect 1 0 16 0;
#X connect 2 0 11 0;
#X connect 3 0 2 0;
#X connect 5 0 6 0;
#X connect 5 1 3 1;
#X connect 5 1 1 2;
#X connect 6 0 3 1;
#X connect 6 0 1 2;
#X connect 7 0 9 0;
#X connect 9 0 1 0;
#X connect 9 1 0 0;
#X connect 10 0 35 0;
#X connect 11 0 14 0;
#X connect 11 1 10 1;
#X connect 12 0 13 1;
#X connect 13 0 15 0;
#X connect 14 0 10 0;
#X connect 15 1 33 0;
#X connect 17 0 5 0;
#X connect 18 0 17 0;
#X connect 20 0 21 0;
#X connect 21 0 12 1;
#X connect 22 0 17 0;
#X connect 33 0 14 1;
#X connect 33 0 34 0;
#X connect 34 0 1 1;
#X connect 34 0 12 1;
#X connect 35 0 13 0;
#X connect 35 1 12 0;
#X connect 35 2 34 1;
