#N canvas 688 236 666 496 12;
#X obj 236 109 inlet;
#X obj 236 133 t l l;
#X obj 289 188 list length;
#X obj 396 111 inlet;
#X obj 289 212 - \$1, f 16;
#X obj 242 255 list split, f 20;
#X obj 243 329 list;
#X obj 242 294 t b l, f 10;
#X obj 243 353 outlet;
#X obj 310 351 outlet;
#X obj 382 353 outlet;
#X text 5 8 pdkl-last;
#X text 15 30 get last n elts;
#X text 11 51 (reverse of list split);
#X text 9 87 arg: last n elts;
#X text 6 113 inlets: input \, last n elts;
#X text 435 19 derek kwan;
#X text 440 40 pdklist;
#X text 445 67 gpl v 3 2019;
#X connect 0 0 1 0;
#X connect 1 0 5 0;
#X connect 1 1 2 0;
#X connect 2 0 4 0;
#X connect 3 0 4 1;
#X connect 4 0 5 1;
#X connect 5 0 7 0;
#X connect 5 1 6 1;
#X connect 5 2 10 0;
#X connect 6 0 8 0;
#X connect 7 0 6 0;
#X connect 7 1 9 0;
