#N canvas 115 186 1193 525 12;
#X obj 303 20 inlet;
#X obj 311 162 list;
#X obj 394 390 outlet;
#X obj 659 388 outlet;
#X obj 534 44 inlet;
#X text 589 44 eltsize;
#X obj 534 69 f \$1;
#X obj 534 94 moses 1;
#X msg 534 119 1;
#X obj 281 223 list split 1;
#N canvas 294 269 817 479 pdkl-split2-alt 0;
#X obj 77 80 t a b;
#X obj 138 144 f;
#X obj 190 142 + 1;
#X obj 252 305 spigot 0;
#X obj 57 297 spigot 1;
#X obj 356 23 inlet;
#X obj 122 265 == 0;
#X obj 57 322 outlet;
#X obj 252 330 outlet;
#X obj 73 16 inlet;
#X text 126 18 input;
#X obj 142 172 % 3;
#X obj 301 254 == 1;
#X text 412 23 reset count to 0 \, 1 \, or 2;
#X obj 387 301 spigot 0;
#X obj 387 326 outlet;
#X obj 436 250 == 2;
#X connect 0 0 4 0;
#X connect 0 0 3 0;
#X connect 0 0 14 0;
#X connect 0 1 1 0;
#X connect 1 0 11 0;
#X connect 2 0 1 1;
#X connect 3 0 8 0;
#X connect 4 0 7 0;
#X connect 5 0 1 1;
#X connect 5 0 6 0;
#X connect 5 0 12 0;
#X connect 5 0 16 0;
#X connect 6 0 4 1;
#X connect 9 0 0 0;
#X connect 11 0 2 0;
#X connect 11 0 6 0;
#X connect 11 0 12 0;
#X connect 11 0 16 0;
#X connect 12 0 3 1;
#X connect 14 0 15 0;
#X connect 16 0 14 1;
#X restore 390 301 pd pdkl-split2-alt;
#X obj 706 48 inlet;
#X obj 706 131 f \$2;
#X obj 306 79 t b l b, f 9;
#X obj 311 125 until;
#X obj 404 14 loadbang;
#X text 18 102 ARGS:;
#X text 15 183 INLETS:;
#X text 16 204 input/eltsize/starting_side;
#X text 226 16 input;
#X text 25 307 OUTLETS:;
#X text 23 326 list1/list2;
#X text 12 9 pdkl-split3;
#X text 13 38 split a list in three;
#X text 756 74 right/left/mid(2);
#X text 749 46 left/mid/right(0) \, mid/right/left(1);
#X obj 858 400 outlet;
#X text 18 126 eltsize/starting side(l/m/r);
#X obj 706 156 % 3;
#X obj 819 237 t b b b;
#X obj 858 375 pdkl-fill;
#X obj 659 363 pdkl-fill;
#X obj 394 365 pdkl-fill;
#X connect 0 0 13 0;
#X connect 1 0 9 0;
#X connect 4 0 6 0;
#X connect 6 0 7 0;
#X connect 7 0 8 0;
#X connect 7 1 9 1;
#X connect 8 0 9 1;
#X connect 9 0 10 0;
#X connect 9 1 1 1;
#X connect 9 2 14 1;
#X connect 9 2 29 0;
#X connect 10 0 32 0;
#X connect 10 1 31 0;
#X connect 10 2 30 0;
#X connect 11 0 12 0;
#X connect 12 0 28 0;
#X connect 13 0 14 0;
#X connect 13 1 1 1;
#X connect 13 2 12 0;
#X connect 13 2 30 2;
#X connect 13 2 31 2;
#X connect 13 2 32 2;
#X connect 14 0 1 0;
#X connect 15 0 6 0;
#X connect 28 0 10 1;
#X connect 29 0 32 1;
#X connect 29 1 31 1;
#X connect 29 2 30 1;
#X connect 30 0 26 0;
#X connect 31 0 3 0;
#X connect 32 0 2 0;
