#N canvas 322 300 1389 532 12;
#X obj 150 63 inlet;
#X obj 366 64 inlet;
#X text 205 65 iter-trigger;
#X text 427 60 iterated list;
#X obj 300 188 list;
#X obj 214 238 list;
#X obj 220 289 list split 1;
#X obj 566 63 inlet;
#X msg 150 88 bang;
#X obj 569 133 moses 1;
#X obj 723 67 inlet;
#X text 773 66 loop 0/1;
#X obj 361 331 spigot 0;
#X text 17 13 pdkl-ddrip;
#X text 618 63 drip chunk;
#X obj 566 88 f \$1;
#X obj 723 92 f \$2;
#X msg 527 157 1;
#X obj 221 459 outlet;
#X text 18 148 ARGS:;
#X text 12 235 INLETS:;
#X text 20 347 OUTLETS:;
#X obj 361 466 outlet;
#X text 381 446 done;
#X text 16 373 output/done;
#X text 230 428 output;
#X obj 676 16 loadbang;
#X text 1149 9 derek kwan 2017;
#X text 1151 27 pdklist;
#X text 1153 50 gpl v 3;
#X obj 381 396 t b b;
#X obj 366 89 t b a;
#X text 21 40 looping drip list on demand;
#X obj 865 62 inlet;
#X msg 865 87 bang;
#X text 917 80 reset;
#X text 12 175 dripchunk/loop(0/1)/reset;
#X text 10 262 trigger/list/chunk/loop/;
#X text 9 286 reset;
#X connect 0 0 8 0;
#X connect 1 0 31 0;
#X connect 4 0 5 1;
#X connect 5 0 6 0;
#X connect 6 0 18 0;
#X connect 6 1 5 1;
#X connect 6 2 12 0;
#X connect 6 2 22 0;
#X connect 7 0 15 0;
#X connect 8 0 5 0;
#X connect 9 0 17 0;
#X connect 9 1 6 1;
#X connect 10 0 16 0;
#X connect 12 0 30 0;
#X connect 15 0 9 0;
#X connect 16 0 12 1;
#X connect 17 0 6 1;
#X connect 26 0 15 0;
#X connect 26 0 16 0;
#X connect 30 0 5 0;
#X connect 30 1 4 0;
#X connect 31 0 4 0;
#X connect 31 1 4 1;
#X connect 33 0 34 0;
#X connect 34 0 4 0;
