#N canvas 402 282 1376 618 12;
#X obj 594 76 inlet;
#X obj 734 75 inlet;
#X obj 881 80 inlet;
#X obj 312 180 list split 1;
#X obj 305 259 until;
#X obj 291 488 spigot 0;
#X msg 349 452 1;
#X obj 584 587 outlet;
#N canvas 727 205 862 471 pdkl-interl4-calcmin 0;
#X obj 398 180 list length;
#X obj 280 249 pack f f f f;
#X obj 536 181 list length;
#X obj 647 178 list length;
#X obj 244 175 list length;
#X obj 280 290 pdklist/pdkl-reduce;
#X obj 446 293 min;
#X obj 280 315 outlet;
#X obj 264 129 inlet;
#X text 313 130 l0;
#X obj 402 126 inlet;
#X text 455 126 l1;
#X obj 561 123 inlet;
#X text 606 126 l2;
#X obj 642 126 inlet;
#X text 688 127 l3;
#X connect 0 0 1 1;
#X connect 1 0 5 0;
#X connect 2 0 1 2;
#X connect 3 0 1 3;
#X connect 4 0 1 0;
#X connect 5 0 7 0;
#X connect 5 1 6 0;
#X connect 6 0 5 1;
#X connect 8 0 4 0;
#X connect 10 0 0 0;
#X connect 12 0 2 0;
#X connect 14 0 3 0;
#X restore 474 244 pd pdkl-interl4-calcmin;
#N canvas 404 316 1053 558 pdkl-interl4-ddrip2array 0;
#X obj 362 317 pdklist/pdkl-ddrip2;
#X obj 538 321 pdklist/pdkl-ddrip2;
#X obj 737 324 pdklist/pdkl-ddrip2;
#X obj 159 316 pdklist/pdkl-ddrip2;
#X obj 883 65 inlet;
#X obj 252 75 inlet;
#X text 307 80 l0;
#X obj 378 74 inlet;
#X text 433 79 l1;
#X obj 545 74 inlet;
#X text 600 79 l2;
#X obj 727 71 inlet;
#X text 782 76 l3;
#X text 938 68 reset;
#X obj 38 71 inlet;
#X text 94 69 trigger;
#X obj 38 96 t b b b b;
#X obj 187 470 outlet;
#X text 248 471 elts;
#X obj 671 464 outlet;
#X text 737 467 last bang;
#X connect 0 0 17 0;
#X connect 1 0 17 0;
#X connect 2 0 17 0;
#X connect 3 0 17 0;
#X connect 3 1 19 0;
#X connect 4 0 2 4;
#X connect 4 0 1 4;
#X connect 4 0 0 4;
#X connect 5 0 3 1;
#X connect 7 0 0 1;
#X connect 9 0 1 1;
#X connect 11 0 2 1;
#X connect 14 0 16 0;
#X connect 16 0 2 0;
#X connect 16 1 1 0;
#X connect 16 2 0 0;
#X connect 16 3 3 0;
#X restore 507 396 pd pdkl-interl4-ddrip2array;
#X obj 305 299 t b b;
#X msg 517 178 0;
#X obj 342 62 inlet;
#X text 393 58 list 0;
#X text 26 30 pdkl-interl4;
#X text 23 65 interlace 4 lists;
#X text 19 225 ARGS:;
#X text 14 284 INLETS:;
#X text 10 314 list 0/1/2/3;
#X text 643 73 list 1;
#X text 783 78 list 2;
#X text 932 80 list 3;
#X text 18 456 OUTLETS:;
#X text 17 485 interlaced list;
#X text 1147 18 derek kwan 2017;
#X text 1150 44 pdklist;
#X text 1146 74 gpl v 3;
#X obj 595 105 t a a;
#X obj 734 100 t a a;
#X obj 881 105 t a a;
#X obj 337 101 t a a b;
#X obj 312 205 t b a;
#X obj 584 562 pdkl-fill;
#X connect 0 0 27 0;
#X connect 1 0 28 0;
#X connect 2 0 29 0;
#X connect 3 0 31 0;
#X connect 4 0 10 0;
#X connect 5 0 32 1;
#X connect 6 0 5 1;
#X connect 8 0 3 1;
#X connect 9 0 32 0;
#X connect 9 1 6 0;
#X connect 9 1 4 1;
#X connect 10 0 5 0;
#X connect 10 1 9 0;
#X connect 11 0 5 1;
#X connect 12 0 30 0;
#X connect 27 0 9 2;
#X connect 27 1 8 1;
#X connect 28 0 9 3;
#X connect 28 1 8 2;
#X connect 29 0 9 4;
#X connect 29 1 8 3;
#X connect 30 0 3 0;
#X connect 30 1 8 0;
#X connect 30 2 11 0;
#X connect 30 2 9 5;
#X connect 30 2 32 2;
#X connect 31 0 4 0;
#X connect 31 1 9 1;
#X connect 32 0 7 0;
