#N canvas 694 269 834 501 12;
#X obj 293 141 pdklist/pdkl-drip;
#X obj 308 185 pdklist/pdkl-rfill;
#X obj 290 90 t a b;
#X obj 288 37 inlet;
#X obj 308 210 outlet;
#X text 652 56 gpl v 3;
#X text 650 36 pdklist;
#X text 14 120 INLETS:;
#X text 15 180 outlets:;
#X text 18 198 reversed input;
#X text 651 15 Derek Kwan 2017;
#X text 14 11 pdkl-rev - list reversal;
#X text 15 140 input/eltsize;
#X text 13 70 ARGS:;
#X text 12 90 elt size;
#X obj 428 33 inlet;
#X obj 428 58 f \$1;
#X obj 428 83 moses 1;
#X msg 428 108 1;
#X obj 355 20 loadbang;
#X connect 0 0 1 0;
#X connect 0 1 1 1;
#X connect 1 0 4 0;
#X connect 2 0 0 0;
#X connect 2 1 1 2;
#X connect 3 0 2 0;
#X connect 15 0 16 0;
#X connect 16 0 17 0;
#X connect 17 0 18 0;
#X connect 17 1 0 1;
#X connect 18 0 0 1;
#X connect 19 0 16 0;
