#N canvas 561 394 1296 542 12;
#X obj 303 20 inlet;
#X obj 311 162 list;
#X obj 394 390 outlet;
#X obj 659 388 outlet;
#X obj 534 44 inlet;
#X text 589 44 eltsize;
#X obj 534 69 f \$1;
#X obj 534 94 moses 1;
#X msg 534 119 1;
#X obj 302 201 list split 1;
#N canvas 298 265 817 479 pdkl-split2-alt 0;
#X obj 77 80 t a b;
#X obj 138 144 f;
#X obj 190 142 + 1;
#X obj 142 172 % 2;
#X obj 252 305 spigot 0;
#X obj 57 297 spigot 1;
#X obj 356 23 inlet;
#X obj 122 265 == 0;
#X text 412 23 reset count to 0 or 1;
#X obj 57 322 outlet;
#X obj 252 330 outlet;
#X obj 73 16 inlet;
#X text 126 18 input;
#X connect 0 0 5 0;
#X connect 0 0 4 0;
#X connect 0 1 1 0;
#X connect 1 0 3 0;
#X connect 2 0 1 1;
#X connect 3 0 2 0;
#X connect 3 0 7 0;
#X connect 3 0 4 1;
#X connect 4 0 10 0;
#X connect 5 0 9 0;
#X connect 6 0 1 1;
#X connect 6 0 7 0;
#X connect 6 0 4 1;
#X connect 7 0 5 1;
#X connect 11 0 0 0;
#X restore 351 284 pd pdkl-split2-alt;
#X obj 706 48 inlet;
#X text 749 46 left/right(0) or right/left(1);
#X obj 706 131 f \$2;
#X obj 706 156 % 2;
#X obj 306 79 t b l b, f 9;
#X obj 311 125 until;
#X text 12 9 pdkl-split2;
#X text 13 38 split a list in two;
#X obj 404 14 loadbang;
#X text 18 102 ARGS:;
#X text 18 126 eltsize/starting side(l/r);
#X text 15 183 INLETS:;
#X text 16 204 input/eltsize/starting_side;
#X text 226 16 input;
#X text 25 307 OUTLETS:;
#X text 23 326 list1/list2;
#X obj 394 365 pdklist/pdkl-fill;
#X obj 659 363 pdklist/pdkl-fill;
#X connect 0 0 15 0;
#X connect 1 0 9 0;
#X connect 4 0 6 0;
#X connect 6 0 7 0;
#X connect 7 0 8 0;
#X connect 7 1 9 1;
#X connect 8 0 9 1;
#X connect 9 0 10 0;
#X connect 9 1 1 1;
#X connect 9 2 16 1;
#X connect 9 2 27 1;
#X connect 9 2 28 1;
#X connect 10 0 27 0;
#X connect 10 1 28 0;
#X connect 11 0 13 0;
#X connect 13 0 14 0;
#X connect 14 0 10 1;
#X connect 15 0 16 0;
#X connect 15 1 1 1;
#X connect 15 2 13 0;
#X connect 15 2 27 2;
#X connect 15 2 28 2;
#X connect 16 0 1 0;
#X connect 19 0 6 0;
#X connect 27 0 2 0;
#X connect 28 0 3 0;
