#N canvas 682 325 990 684 12;
#X obj 258 246 list;
#X obj 255 280 t l l, f 11;
#X obj 238 326 list split 1, f 26;
#X obj 354 599 del, f 10;
#X obj 254 629 list append;
#X obj 836 559 outlet;
#X msg 449 435 stop;
#X obj 547 39 inlet;
#X obj 255 68 t b l;
#X obj 437 59 loadbang;
#X obj 437 637 outlet;
#X obj 599 267 f \$2;
#X obj 367 47 inlet;
#X obj 447 168 f \$1;
#X text 399 21 num values;
#X obj 452 207 + 1;
#X obj 449 244 moses 1, f 13;
#X obj 252 32 inlet;
#X obj 707 67 inlet;
#X text 270 7 input;
#X text 874 525 end of seq;
#X text 8 12 pdkl-seq1;
#X text 5 38 variable length sequencer;
#X text 4 161 INLETS:;
#X text 2 181 input/num values;
#X text 564 15 loop(0/1);
#X text 9 72 ARGS:;
#X text 11 383 OUTLETS:;
#X obj 272 388 list split 1, f 27;
#X text 803 17 Derek Kwan 2017;
#X text 869 42 pdklist;
#X text 870 67 gpl v 3;
#X text 14 581 based off the list help files;
#X text 756 61 del msgs;
#X text 10 475 DELAY MSGS:;
#X text 14 495 stop/tempo "f (s)";
#X text 14 517 etc (look at [delay] help);
#X text 11 411 values/done;
#N canvas 262 168 857 602 pdkl-seq1-bangsync 0;
#X obj 54 77 inlet;
#X text 113 101 incoming bangs;
#X obj 192 145 == 0;
#X obj 55 288 spigot 0;
#X obj 69 400 outlet;
#X msg 116 229 1;
#X obj 195 280 f;
#X msg 201 221 0;
#X obj 228 170 t b b;
#X text 263 258 idea: incoming bang sets flag that bang arrived;
#X obj 195 305 sel 1;
#X obj 183 369 spigot 1;
#X obj 426 100 inlet;
#X text 482 101 if we want to be syncing;
#X obj 249 107 inlet;
#X text 271 89 bang syncer;
#X text 17 9 dkbangsync - bang syncer;
#X text 12 34 Derek Kwan \, 2016 - gpl v3;
#X text 328 14 in1: incoming bangs (or clear) \, in2: bang syncer;
#X text 340 31 in3: syncing? \, in4: clear;
#X obj 705 100 inlet;
#X text 755 100 clear, f 25;
#X connect 0 0 5 0;
#X connect 0 0 3 0;
#X connect 2 0 3 1;
#X connect 3 0 4 0;
#X connect 5 0 6 1;
#X connect 6 0 10 0;
#X connect 7 0 6 1;
#X connect 8 0 7 0;
#X connect 8 1 6 0;
#X connect 10 0 11 0;
#X connect 11 0 4 0;
#X connect 12 0 2 0;
#X connect 12 0 11 1;
#X connect 14 0 8 0;
#X connect 20 0 7 0;
#X restore 221 205 pd pdkl-seq1-bangsync;
#X obj 502 122 f \$3;
#X text 9 98 num values/loop(0/1)/sync(0/1);
#X text 4 204 loop(0/1)/sync(0/1)/misc;
#X text 8 246 MISC: delay msgs;
#X text 9 270 sync(0/1)/clear for syncer;
#X text 641 11 sync;
#X obj 490 314 spigot 0;
#X obj 629 38 inlet;
#N canvas 424 137 728 613 pdkl-seq1-loophelp 1;
#X obj 608 75 list length;
#X obj 608 100 - 1;
#X obj 556 149 list split;
#X obj 544 30 t a a;
#X obj 261 330 sel msec permsec sec persec samp min permin;
#X msg 506 386 -1;
#X msg 552 388 -1.67e-06;
#X obj 233 163 &&;
#X obj 543 1 inlet;
#X text 608 8 tempo msg;
#X obj 110 101 loadbang;
#X obj 291 28 inlet;
#X obj 386 36 inlet;
#X text 377 8 loop(0/1);
#X text 311 9 numvals;
#X obj 76 41 inlet;
#X text 82 8 delaytime;
#X obj 183 38 inlet;
#X text 170 11 remaining list;
#X obj 183 63 list length;
#X obj 145 451 f;
#X obj 54 483 +;
#X obj 221 279 sel 1 0;
#X msg 109 405 0;
#X obj 54 508 outlet;
#X text 201 526 last delay so we make sure the loop bang gets to;
#X text 204 554 bang sync before the syncer;
#X obj 222 112 <;
#X obj 221 230 change;
#X text 199 502 if looping and syncing \, lop off a little delay time
from the;
#X obj 454 43 inlet;
#X obj 228 203 &&;
#X text 458 19 syncing, f 36;
#X msg 267 374 -0.5;
#X msg 384 388 -0.0005;
#X msg 110 142 1;
#X msg 648 393 -6e-05;
#X msg 450 391 -0.001;
#X msg 325 388 -0.001;
#X connect 0 0 1 0;
#X connect 1 0 2 1;
#X connect 2 1 4 0;
#X connect 3 0 2 0;
#X connect 3 1 0 0;
#X connect 4 0 33 0;
#X connect 4 1 38 0;
#X connect 4 2 34 0;
#X connect 4 3 37 0;
#X connect 4 4 5 0;
#X connect 4 5 6 0;
#X connect 4 6 36 0;
#X connect 5 0 20 1;
#X connect 6 0 20 1;
#X connect 7 0 31 0;
#X connect 8 0 3 0;
#X connect 10 0 33 0;
#X connect 10 0 35 0;
#X connect 11 0 27 1;
#X connect 12 0 7 1;
#X connect 15 0 21 0;
#X connect 17 0 19 0;
#X connect 19 0 27 0;
#X connect 20 0 21 1;
#X connect 21 0 24 0;
#X connect 22 0 20 0;
#X connect 22 1 23 0;
#X connect 23 0 21 1;
#X connect 27 0 7 0;
#X connect 28 0 22 0;
#X connect 30 0 31 1;
#X connect 31 0 28 0;
#X connect 33 0 20 1;
#X connect 34 0 20 1;
#X connect 35 0 31 1;
#X connect 36 0 20 1;
#X connect 37 0 20 1;
#X connect 38 0 20 1;
#X restore 376 530 pd pdkl-seq1-loophelp;
#X obj 274 448 t l l, f 18;
#X obj 703 100 route float sync clear tempo;
#X obj 812 276 list prepend tempo;
#X obj 812 301 list trim;
#X text 496 636 values if > 1 or bang;
#X text 128 359 filter out delay times;
#X text 170 312 iterator;
#X connect 0 0 1 0;
#X connect 1 0 2 0;
#X connect 1 1 6 0;
#X connect 2 0 28 0;
#X connect 2 1 48 0;
#X connect 2 2 5 0;
#X connect 2 2 45 0;
#X connect 3 0 4 0;
#X connect 4 0 2 0;
#X connect 6 0 3 0;
#X connect 7 0 11 0;
#X connect 8 0 38 0;
#X connect 8 1 0 1;
#X connect 9 0 11 0;
#X connect 9 0 13 0;
#X connect 9 0 39 0;
#X connect 11 0 45 1;
#X connect 11 0 47 3;
#X connect 12 0 13 0;
#X connect 13 0 15 0;
#X connect 15 0 16 0;
#X connect 15 0 47 2;
#X connect 16 1 2 1;
#X connect 17 0 8 0;
#X connect 18 0 49 0;
#X connect 28 0 47 0;
#X connect 28 1 10 0;
#X connect 38 0 0 0;
#X connect 39 0 38 2;
#X connect 45 0 38 0;
#X connect 46 0 38 1;
#X connect 47 0 3 0;
#X connect 48 0 4 1;
#X connect 48 1 47 1;
#X connect 49 1 39 0;
#X connect 49 2 38 3;
#X connect 49 2 47 4;
#X connect 49 3 47 5;
#X connect 49 3 50 0;
#X connect 49 4 3 0;
#X connect 50 0 51 0;
#X connect 51 0 3 0;
