#N canvas 809 245 990 684 12;
#X obj 258 175 list;
#X obj 258 200 t l l, f 11;
#X obj 258 289 list split 1;
#X obj 258 468 del;
#X obj 363 411 list append;
#X obj 428 313 spigot 0;
#X obj 583 501 outlet;
#X obj 258 493 outlet;
#X msg 392 256 stop;
#X obj 514 74 inlet;
#X obj 256 76 t b l;
#X obj 428 104 loadbang;
#X obj 356 497 outlet;
#X text 415 496 values if > 1;
#X obj 513 182 f \$2;
#X obj 376 71 inlet;
#X obj 376 146 f \$1;
#X text 408 45 num values;
#X obj 376 171 + 1;
#X obj 375 200 moses 1, f 13;
#X obj 252 32 inlet;
#X obj 707 67 inlet;
#X obj 706 135 bang;
#X text 756 61 stop;
#X text 270 7 input;
#X text 613 474 end of seq;
#X text 8 12 pdkl-seq1;
#X text 5 38 variable length sequencer;
#X text 4 161 INLETS:;
#X text 2 181 input/num values;
#X text 4 204 loop(0/1)/stop(bang);
#X text 531 50 loop(0/1);
#X text 9 72 ARGS:;
#X text 9 98 num values/loop(0/1);
#X text 3 272 OUTLETS:;
#X text 3 300 bangs/values/done;
#X obj 257 375 list split 1;
#X text 803 17 Derek Kwan 2017;
#X text 869 42 pdklist;
#X text 870 67 gpl v 3;
#X text 6 464 based off the list help files;
#X connect 0 0 1 0;
#X connect 1 0 2 0;
#X connect 1 1 8 0;
#X connect 2 0 36 0;
#X connect 2 1 4 1;
#X connect 2 2 6 0;
#X connect 2 2 5 0;
#X connect 3 0 4 0;
#X connect 3 0 7 0;
#X connect 4 0 2 0;
#X connect 5 0 0 0;
#X connect 8 0 3 0;
#X connect 9 0 14 0;
#X connect 10 0 0 0;
#X connect 10 1 0 1;
#X connect 11 0 14 0;
#X connect 11 0 16 0;
#X connect 14 0 5 1;
#X connect 15 0 16 0;
#X connect 16 0 18 0;
#X connect 18 0 19 0;
#X connect 19 1 2 1;
#X connect 20 0 10 0;
#X connect 21 0 22 0;
#X connect 22 0 8 0;
#X connect 36 0 3 0;
#X connect 36 1 12 0;
