#N canvas 608 327 1268 615 12;
#X obj 322 92 t b l b;
#X obj 275 145 list;
#X obj 438 275 f;
#X obj 487 273 + 1;
#X obj 451 384 sel 1, f 13;
#X obj 305 465 list split 1, f 24;
#X obj 390 229 until;
#X obj 311 558 outlet;
#X text 19 17 pdkl-rpt1;
#X text 985 20 derek kwan 2017;
#X text 984 50 pdklist;
#X text 987 71 gpl v 3;
#X text 5 112 ARGS:;
#X text 8 201 INLET:;
#X text 14 302 OUTLET:;
#X text 13 325 output;
#X obj 325 42 inlet;
#X obj 494 27 inlet;
#X obj 494 65 f \$1;
#X obj 494 90 moses 1;
#X msg 494 115 1;
#X msg 490 216 0;
#X obj 639 132 inlet;
#X obj 637 195 moses 1;
#X msg 648 226 1;
#X obj 642 168 f \$2;
#X obj 556 11 loadbang;
#X obj 705 41 inlet;
#X obj 703 78 f \$3;
#X obj 262 191 list split 0;
#X text 5 134 rpt times/num elts to rpt/;
#X text 0 225 input/rpt times/num elts to rpt/;
#X text 7 153 elt to rpt (idx 0);
#X text 1 247 elt to rpt (idx 0);
#X obj 413 341 t f b f, f 16;
#X text 8 48 rpt x elts starting with y z times;
#X obj 303 515 pdklist/pdkl-fill, f 40;
#X connect 0 0 6 0;
#X connect 0 1 1 1;
#X connect 0 2 21 0;
#X connect 0 2 36 2;
#X connect 1 0 29 0;
#X connect 2 0 3 0;
#X connect 3 0 34 0;
#X connect 4 0 6 1;
#X connect 4 0 36 1;
#X connect 5 0 36 0;
#X connect 6 0 2 0;
#X connect 16 0 0 0;
#X connect 17 0 18 0;
#X connect 18 0 19 0;
#X connect 19 0 20 0;
#X connect 19 1 4 1;
#X connect 20 0 4 1;
#X connect 21 0 2 1;
#X connect 22 0 25 0;
#X connect 23 0 24 0;
#X connect 23 1 5 1;
#X connect 24 0 5 1;
#X connect 25 0 23 0;
#X connect 26 0 18 0;
#X connect 26 0 25 0;
#X connect 26 0 28 0;
#X connect 27 0 28 0;
#X connect 28 0 29 1;
#X connect 29 1 5 0;
#X connect 29 2 6 1;
#X connect 34 0 4 0;
#X connect 34 1 1 0;
#X connect 34 2 2 1;
#X connect 36 0 7 0;
