#N canvas 903 231 918 573 12;
#X obj 214 21 inlet;
#X obj 325 196 f;
#X obj 405 79 list length;
#X obj 214 263 list;
#X obj 390 196 - 1;
#X obj 386 227 t f f;
#X obj 214 117 t b b b, f 13;
#X obj 267 317 random 1;
#X obj 214 84 until;
#X obj 214 46 t b l l b, f 37;
#X obj 140 497 spigot 0;
#X msg 487 448 0;
#X msg 416 444 1;
#X obj 140 522 outlet;
#X text 431 195 counter 1-n >= 0;
#X text 220 509 output after last swap;
#X text 668 256 fisher-yates shuffle;
#X text 667 281 swap elt j = n-1>= 0 with;
#X text 712 302 elt i = random n;
#X text 741 11 Derek Kwan 2017;
#X text 739 28 pdklist;
#X text 736 52 gpl v 3;
#X text 8 11 pdkl-fyshuf;
#X text 6 37 fisher-yates shuffle;
#X text 8 185 INLET:;
#X text 12 264 OUTLET:;
#X text 8 285 output;
#X obj 430 270 sel 0;
#X obj 348 311 t b b f;
#X text 11 204 input/elt size;
#X obj 215 384 pdklist/pdkl-swap, f 32;
#X obj 571 25 inlet;
#X obj 571 50 f \$1;
#X obj 571 75 moses 1;
#X msg 571 100 1;
#X obj 570 126 f;
#X obj 480 17 loadbang;
#X obj 405 104 / 1;
#X text 9 112 ARGS:;
#X text 7 133 elt size;
#X connect 0 0 9 0;
#X connect 1 0 4 0;
#X connect 2 0 37 0;
#X connect 3 0 10 0;
#X connect 3 0 30 0;
#X connect 4 0 5 0;
#X connect 5 0 1 1;
#X connect 5 1 27 0;
#X connect 6 0 3 0;
#X connect 6 1 7 0;
#X connect 6 2 1 0;
#X connect 7 0 30 1;
#X connect 8 0 6 0;
#X connect 9 0 8 0;
#X connect 9 1 3 1;
#X connect 9 2 2 0;
#X connect 9 3 11 0;
#X connect 10 0 13 0;
#X connect 11 0 10 1;
#X connect 12 0 10 1;
#X connect 27 0 28 0;
#X connect 27 1 30 2;
#X connect 28 0 12 0;
#X connect 28 1 8 1;
#X connect 28 2 30 2;
#X connect 30 0 3 1;
#X connect 31 0 32 0;
#X connect 32 0 33 0;
#X connect 33 0 34 0;
#X connect 33 1 35 0;
#X connect 34 0 35 0;
#X connect 35 0 37 1;
#X connect 35 0 30 3;
#X connect 36 0 32 0;
#X connect 37 0 7 1;
#X connect 37 0 1 1;
