#N canvas 637 254 1172 695 12;
#X obj 565 89 inlet;
#X text 610 76 elt to replace;
#X obj 565 114 list split 1;
#X obj 727 95 inlet;
#X text 775 91 list to replace elt with;
#X obj 311 91 inlet;
#X text 377 83 input list;
#X obj 311 191 pdklist/pdkl-drip;
#X obj 389 273 pdklist/pdkl-eltcmp;
#X obj 311 216 t a a;
#X obj 389 298 sel 1 0;
#X text 519 305 replace if elts match;
#X obj 359 331 t b b;
#X msg 365 368 0;
#X msg 433 356 1;
#X text 525 327 else let original through;
#X obj 310 410 spigot 0;
#X obj 309 486 pdklist/pdkl-fill;
#X obj 311 125 t l b b;
#X text 373 111 clear accumulator first;
#X text 362 169 when done \, flush;
#X obj 309 511 outlet;
#X text 16 21 pdkl-sub;
#X text 14 51 sub out matching elements of a list;
#X text 12 125 ARGS:;
#X text 8 245 INLETS:;
#X text 12 270 input/replacee/replacer;
#X text 9 325 OUTLET:;
#X text 7 350 output;
#X text 994 19 derek kwan 2017;
#X text 994 39 pdklist;
#X text 992 60 gpl v 3;
#X obj 527 206 list append \$1;
#X obj 437 402 list append \$2;
#X text 10 153 replacee/replacer;
#X text 12 173 (note: as of right now \,;
#X text 12 197 second arg only takes one elt);
#X connect 0 0 2 0;
#X connect 2 0 32 1;
#X connect 3 0 33 1;
#X connect 5 0 18 0;
#X connect 7 0 9 0;
#X connect 7 1 17 1;
#X connect 8 0 10 0;
#X connect 9 0 16 0;
#X connect 9 1 8 0;
#X connect 10 0 12 0;
#X connect 10 1 14 0;
#X connect 12 0 33 0;
#X connect 12 1 13 0;
#X connect 13 0 16 1;
#X connect 14 0 16 1;
#X connect 16 0 17 0;
#X connect 17 0 21 0;
#X connect 18 0 7 0;
#X connect 18 1 32 0;
#X connect 18 2 17 2;
#X connect 32 0 8 1;
#X connect 33 0 17 0;
