#N canvas 509 437 1089 510 12;
#X obj 174 419 pdklist/pdkl-fill;
#X obj 201 289 t b l;
#X obj 469 115 f \$1;
#X obj 474 19 inlet;
#X obj 310 310 t b l;
#X obj 326 366 spigot 0;
#X obj 431 242 == 0;
#X text 514 38 put x elts at end;
#X obj 253 161 t l b;
#X obj 255 253 list split 1;
#X obj 341 27 loadbang;
#X obj 174 444 outlet;
#X obj 248 65 inlet;
#X text 307 72 input;
#X text 8 8 pdkl-rot;
#X text 12 35 rotate by x elts;
#X text 3 142 ARGS:;
#X text 4 161 p x elts at end;
#X text 7 213 INLETS:;
#X text 5 240 inputlist/rotation amt;
#X text 12 320 OUTLETS:;
#X text 14 341 output list;
#X text 908 10 derek kwan 2017;
#X text 909 35 pdklist;
#X text 907 56 gpl v 3;
#X connect 0 0 11 0;
#X connect 1 0 0 1;
#X connect 1 1 0 0;
#X connect 2 0 6 0;
#X connect 2 0 9 1;
#X connect 3 0 2 0;
#X connect 4 0 5 0;
#X connect 4 1 0 0;
#X connect 5 0 0 1;
#X connect 6 0 5 1;
#X connect 8 0 9 0;
#X connect 8 1 0 2;
#X connect 9 0 1 0;
#X connect 9 1 4 0;
#X connect 10 0 2 0;
#X connect 12 0 8 0;
