#N canvas 1021 639 944 473 12;
#X obj 296 200 list split 0;
#X obj 383 302 list prepend;
#X obj 280 338 list append;
#X obj 613 83 inlet;
#X obj 270 77 inlet;
#X text 327 83 insert;
#X obj 280 363 outlet;
#X obj 428 76 inlet;
#X text 484 79 insert idx;
#X obj 428 101 f \$1;
#X text 12 8 pdkl-insert - insert elts into a given list;
#X text 663 83 list insertee;
#X obj 270 121 t b a;
#X obj 281 162 list;
#X text 18 107 inlets: insert \, insert idx \,;
#X text 59 131 list to insert into;
#X text 10 188 args: insert idx;
#X text 865 11 derek kwan;
#X text 885 32 pdklist;
#X text 843 56 gpl v 3 2017;
#X obj 515 47 loadbang;
#X obj 305 265 t a b;
#X connect 0 0 2 0;
#X connect 0 1 1 0;
#X connect 0 2 21 0;
#X connect 1 0 2 1;
#X connect 2 0 6 0;
#X connect 3 0 13 1;
#X connect 4 0 12 0;
#X connect 7 0 9 0;
#X connect 9 0 0 1;
#X connect 12 0 13 0;
#X connect 12 1 1 1;
#X connect 13 0 0 0;
#X connect 20 0 9 0;
#X connect 21 0 2 0;
#X connect 21 1 1 0;
