#N canvas 517 370 910 621 12;
#X obj 518 54 inlet;
#X text 520 26 clear;
#X obj 430 57 inlet;
#X text 448 31 flush;
#X obj 358 60 inlet;
#X text 347 34 input;
#X obj 365 329 outlet;
#X text 22 45 fills a list with inputs;
#X text 693 68 gpl v 3;
#X text 10 108 INLETS:;
#X text 8 131 input/flush/clear;
#X text 691 22 Derek Kwan 2017;
#X text 691 45 pdklist;
#X text 23 19 pdkl-fill;
#X obj 360 205 list store;
#X obj 231 109 list prepend append;
#X obj 231 134 list trim;
#X msg 430 82 bang;
#X msg 518 79 bang;
#X connect 0 0 18 0;
#X connect 2 0 17 0;
#X connect 4 0 15 0;
#X connect 14 0 6 0;
#X connect 15 0 16 0;
#X connect 16 0 14 0;
#X connect 17 0 14 0;
#X connect 18 0 14 1;
