#N canvas 806 205 1396 774 12;
#X obj 780 60 inlet;
#X obj 661 90 inlet;
#X obj 358 60 inlet;
#X text 347 34 input;
#X obj 394 507 outlet;
#X text 937 81 gpl v 3;
#X text 10 108 INLETS:;
#X text 8 131 input/flush/clear;
#X text 935 35 Derek Kwan 2017;
#X text 935 58 pdklist;
#X obj 389 383 list store, f 52;
#X obj 236 302 list prepend append;
#X obj 236 327 list trim;
#X msg 661 115 bang;
#X msg 780 85 bang;
#X text 39 229 args: fill amt;
#X text 782 32 reset;
#X obj 389 407 route bang;
#X obj 341 177 f;
#X obj 391 178 + 1;
#X obj 391 202 t f f;
#X obj 391 236 >= 1;
#X text 648 56 force flush;
#X obj 358 84 t b a;
#X text 23 19 pdkl-filln;
#X obj 392 294 t b b b, f 31;
#X msg 497 219 0;
#X obj 480 34 inlet;
#X text 536 29 size of list;
#X obj 472 154 max 1;
#X obj 472 178 i;
#X text 22 45 fills an n-elt list;
#X obj 553 63 loadbang;
#X obj 553 87 f \$1;
#X obj 391 260 sel 1;
#X connect 0 0 14 0;
#X connect 1 0 13 0;
#X connect 2 0 23 0;
#X connect 10 0 17 0;
#X connect 11 0 12 0;
#X connect 12 0 10 0;
#X connect 13 0 10 0;
#X connect 14 0 10 1;
#X connect 17 1 4 0;
#X connect 18 0 19 0;
#X connect 19 0 20 0;
#X connect 20 0 21 0;
#X connect 20 1 18 1;
#X connect 21 0 34 0;
#X connect 23 0 18 0;
#X connect 23 1 11 0;
#X connect 25 0 26 0;
#X connect 25 1 10 1;
#X connect 25 2 10 0;
#X connect 26 0 18 1;
#X connect 27 0 29 0;
#X connect 29 0 30 0;
#X connect 30 0 21 1;
#X connect 32 0 33 0;
#X connect 33 0 29 0;
#X connect 34 0 25 0;
