#N canvas 78 201 795 525 12;
#X obj 497 26 inlet;
#X obj 498 57 list split 1;
#X text 552 29 compare;
#X obj 298 190 list split 1;
#X obj 313 151 list;
#X obj 300 412 list append;
#X obj 286 275 t l l;
#X obj 292 331 spigot 0;
#X obj 299 377 t l b;
#X obj 262 50 t b l b;
#X obj 264 103 until;
#X msg 509 187 0;
#X obj 310 484 outlet;
#X obj 260 23 inlet;
#X text 316 27 input list;
#X text 14 14 pdkl-memq;
#X text 14 51 return sublist starting with;
#X text 15 74 comparator;
#X text 18 196 INLETS:;
#X text 14 222 input list/comparator;
#X text 26 120 ARGS:;
#X text 24 139 none;
#X text 30 275 OUTLETS:;
#X text 30 298 output list;
#X obj 390 293 pdkl-eltcmp;
#X connect 0 0 1 0;
#X connect 1 0 24 1;
#X connect 3 0 6 0;
#X connect 3 1 4 1;
#X connect 3 1 5 1;
#X connect 3 2 10 1;
#X connect 4 0 3 0;
#X connect 5 0 12 0;
#X connect 6 0 7 0;
#X connect 6 1 24 0;
#X connect 7 0 8 0;
#X connect 8 0 5 0;
#X connect 8 1 10 1;
#X connect 9 0 10 0;
#X connect 9 1 4 1;
#X connect 9 2 11 0;
#X connect 10 0 4 0;
#X connect 11 0 7 1;
#X connect 24 0 7 1;
