#N canvas 606 327 1268 615 12;
#X obj 275 145 list;
#X obj 438 275 f;
#X obj 487 273 + 1;
#X obj 410 389 sel 1, f 13;
#X obj 305 465 list split 1, f 24;
#X obj 390 229 until;
#X obj 311 558 outlet;
#X text 985 20 derek kwan 2017;
#X text 984 50 pdklist;
#X text 987 71 gpl v 3;
#X text 5 112 ARGS:;
#X text 8 201 INLET:;
#X text 14 302 OUTLET:;
#X text 13 325 output;
#X obj 325 42 inlet;
#X obj 494 27 inlet;
#X obj 494 65 f \$1;
#X msg 490 216 0;
#X obj 639 132 inlet;
#X obj 642 168 f \$2;
#X obj 556 11 loadbang;
#X obj 705 41 inlet;
#X obj 703 78 f \$3;
#X obj 262 191 list split 0;
#X text 0 225 input/rpt times/num elts to rpt/;
#X text 7 153 elt to rpt (idx 0);
#X text 1 247 elt to rpt (idx 0);
#X obj 413 341 t f b f, f 16;
#X text 8 48 rpt x elts starting with y z times;
#X obj 303 515 pdkl-fill, f 40;
#X obj 494 90 max 1;
#X text 19 17 pdkl-rpt;
#X obj 642 192 t f f, f 11;
#X obj 322 92 t b l b l, f 19;
#X obj 577 285 spigot 0;
#X obj 642 216 <= 0;
#X obj 573 258 list length;
#X obj 709 234 moses 1;
#X text 5 134 rpt times/num elts to rpt (*all)/;
#X text 15 398 * = default;
#X connect 0 0 23 0;
#X connect 1 0 2 0;
#X connect 2 0 27 0;
#X connect 3 0 5 1;
#X connect 3 0 29 1;
#X connect 4 0 29 0;
#X connect 5 0 1 0;
#X connect 14 0 33 0;
#X connect 15 0 16 0;
#X connect 16 0 30 0;
#X connect 17 0 1 1;
#X connect 18 0 19 0;
#X connect 19 0 32 0;
#X connect 20 0 16 0;
#X connect 20 0 19 0;
#X connect 20 0 22 0;
#X connect 21 0 22 0;
#X connect 22 0 23 1;
#X connect 23 1 4 0;
#X connect 23 2 5 1;
#X connect 27 0 3 0;
#X connect 27 1 0 0;
#X connect 27 2 1 1;
#X connect 29 0 6 0;
#X connect 30 0 3 1;
#X connect 32 0 35 0;
#X connect 32 1 37 0;
#X connect 33 0 5 0;
#X connect 33 1 0 1;
#X connect 33 2 17 0;
#X connect 33 2 29 2;
#X connect 33 3 36 0;
#X connect 34 0 4 1;
#X connect 35 0 34 1;
#X connect 36 0 34 0;
#X connect 37 1 4 1;
