#N canvas 362 269 1331 1058 12;
#X obj 243 387 pdkl-fill;
#X obj 239 55 list fromsymbol;
#X obj 241 116 pdkl-drip;
#X obj 241 155 t f f;
#X obj 242 263 spigot 0;
#X obj 307 238 t f f;
#X obj 307 214 != 47;
#X obj 324 281 sel 0 1;
#X obj 239 567 list tosymbol;
#X obj 350 318 t b b;
#X text 398 324 flush then clear;
#X obj 239 79 t l b b;
#X obj 240 610 pdkl-fill, f 18;
#X text 368 70 clear both fills;
#X obj 283 445 list length;
#X obj 283 469 > 0;
#X obj 243 411 t a l;
#X obj 240 510 spigot;
#X obj 240 634 outlet;
#X obj 543 39 inlet;
#X text 591 38 unix/win;
#X obj 236 20 inlet;
#X text 781 75 derek kwan;
#X text 773 95 pdklist 2018;
#X text 779 114 gpl v 3;
#X text 328 109 flush both fills when done;
#X obj 512 263 t b b;
#X obj 705 31 loadbang;
#X text 2 22 pdkl-charsplit;
#X text 35 43 split symbol into components;
#X text 33 64 by given char;
#X obj 536 93 symbol \$1;
#X obj 536 117 list tosymbol;
#X obj 536 141 list split 1;
#X connect 0 0 16 0;
#X connect 1 0 11 0;
#X connect 2 0 3 0;
#X connect 2 2 26 0;
#X connect 3 0 4 0;
#X connect 3 1 6 0;
#X connect 4 0 0 0;
#X connect 5 0 4 1;
#X connect 5 1 7 0;
#X connect 6 0 5 0;
#X connect 7 0 9 0;
#X connect 8 0 12 0;
#X connect 9 0 0 2;
#X connect 9 1 0 1;
#X connect 11 0 2 0;
#X connect 11 1 0 2;
#X connect 11 2 12 2;
#X connect 12 0 18 0;
#X connect 14 0 15 0;
#X connect 15 0 17 1;
#X connect 16 0 17 0;
#X connect 16 1 14 0;
#X connect 17 0 8 0;
#X connect 19 0 31 0;
#X connect 21 0 1 0;
#X connect 26 0 12 1;
#X connect 26 1 0 1;
#X connect 27 0 31 0;
#X connect 31 0 32 0;
#X connect 32 0 33 0;
#X connect 33 0 6 1;
