#N canvas 268 543 1371 652 12;
#X obj 415 392 pdkl-map;
#X obj 512 381 * 1, f 9;
#X obj 512 406 + 0, f 12;
#X obj 579 67 inlet;
#X text 593 95 min;
#X obj 667 55 inlet;
#X text 727 64 max;
#X obj 729 246 -;
#X obj 667 108 t b f;
#X obj 729 277 abs;
#X obj 572 233 min;
#X text 661 276 min;
#X obj 974 38 inlet;
#X obj 974 63 route grain seed;
#X msg 1044 103 seed \$1;
#X obj 909 365 max 1;
#X obj 919 410 + 1;
#X obj 804 46 loadbang;
#X obj 804 71 t b b;
#X obj 818 112 f \$2;
#X obj 750 153 f \$1;
#X obj 922 326 i;
#X obj 928 226 f \$3;
#X msg 928 276 500000;
#X obj 928 251 moses 1, f 12;
#X text 14 81 ARGS:;
#X text 15 174 INLETS:;
#X text 15 256 OUTLETS:;
#X text 13 278 random list;
#X text 12 196 length/bound1/bound2/messages;
#X text 13 31 list of random floats;
#X text 8 0 pdkl-rrand;
#X obj 411 58 inlet;
#X obj 411 467 outlet;
#X text 466 63 length;
#X text 11 106 bound1/bound2/grainsize;
#X obj 512 356 / 500000;
#X obj 422 281 pdkl-randi 0 500001;
#X connect 0 0 33 0;
#X connect 0 1 36 0;
#X connect 1 0 2 0;
#X connect 2 0 0 1;
#X connect 3 0 7 0;
#X connect 3 0 10 0;
#X connect 5 0 8 0;
#X connect 7 0 9 0;
#X connect 8 0 7 0;
#X connect 8 0 10 0;
#X connect 8 1 7 1;
#X connect 8 1 10 1;
#X connect 9 0 1 1;
#X connect 10 0 2 1;
#X connect 12 0 13 0;
#X connect 13 0 21 0;
#X connect 13 1 14 0;
#X connect 14 0 37 3;
#X connect 15 0 16 0;
#X connect 15 0 36 1;
#X connect 16 0 37 2;
#X connect 17 0 18 0;
#X connect 18 0 20 0;
#X connect 18 1 19 0;
#X connect 18 1 22 0;
#X connect 19 0 8 0;
#X connect 20 0 10 0;
#X connect 20 0 7 0;
#X connect 21 0 15 0;
#X connect 22 0 24 0;
#X connect 23 0 21 0;
#X connect 24 0 23 0;
#X connect 24 1 21 0;
#X connect 32 0 37 0;
#X connect 36 0 1 0;
#X connect 37 0 0 0;
