#N canvas 124 129 1371 652 12;
#X obj 358 489 * 1, f 50;
#X obj 358 514 + 0, f 31;
#X obj 579 67 inlet;
#X text 593 95 min;
#X obj 667 55 inlet;
#X text 727 64 max;
#X obj 720 284 -, f 18;
#X obj 667 108 t b f;
#X obj 720 315 abs;
#X obj 574 264 min, f 14;
#X obj 974 38 inlet;
#X obj 974 63 route grain seed;
#X msg 1044 103 seed \$1;
#X obj 909 365 max 1;
#X obj 919 410 + 1;
#X obj 804 46 loadbang;
#X obj 804 71 t b b;
#X obj 840 105 f \$2;
#X obj 788 108 f \$1;
#X obj 922 326 i;
#X obj 928 226 f \$3;
#X msg 928 276 500000;
#X obj 928 251 moses 1, f 12;
#X text 14 81 ARGS:;
#X text 15 174 INLETS:;
#X text 15 256 OUTLETS:;
#X text 13 278 random list;
#X text 13 31 list of random floats;
#X obj 411 58 inlet;
#X obj 370 608 outlet;
#X text 466 63 length;
#X text 11 106 bound1/bound2/grainsize;
#X obj 358 464 / 500000, f 60;
#N canvas 603 243 695 473 pdklrrand-rangeiter 0;
#X obj 313 251 pdkl-ddrip 2;
#X obj 215 176 list split 1;
#X obj 313 275 unpack f f;
#X obj 212 116 inlet;
#X obj 357 112 inlet;
#X text 403 109 trig;
#X obj 313 299 outlet;
#X obj 428 345 outlet;
#X obj 218 346 outlet;
#X obj 215 200 max 1;
#X connect 0 0 2 0;
#X connect 1 0 9 0;
#X connect 1 1 0 1;
#X connect 2 0 6 0;
#X connect 2 1 7 0;
#X connect 3 0 1 0;
#X connect 4 0 0 0;
#X connect 9 0 8 0;
#X restore 339 105 pd pdklrrand-rangeiter;
#X obj 302 191 until;
#X obj 319 364 sel 1;
#X msg 358 201 0;
#X obj 397 232 + 1;
#X obj 351 560 pdkl-fill, f 25;
#X obj 317 159 t b b b f, f 22;
#X obj 302 228 i;
#X obj 373 415 random 500001;
#X obj 309 277 t f f b b;
#X text 8 0 pdkl-rrand2;
#X text 12 196 length+ranges/bound1/bound2/messages;
#X text 860 479 example input:;
#X text 866 551 not enough ranges defaults to last range param;
#X text 861 506 3 0 1 0 1.5 0 3.5;
#X text 864 527 gives a random floats bw 0-1 \, 0-1.5 \, then 0-3.5
;
#X connect 0 0 1 0;
#X connect 1 0 38 0;
#X connect 2 0 6 0;
#X connect 2 0 9 0;
#X connect 4 0 7 0;
#X connect 6 0 8 0;
#X connect 7 0 6 0;
#X connect 7 0 9 0;
#X connect 7 1 6 1;
#X connect 7 1 9 1;
#X connect 8 0 0 1;
#X connect 9 0 1 1;
#X connect 10 0 11 0;
#X connect 11 0 19 0;
#X connect 11 1 12 0;
#X connect 12 0 41 0;
#X connect 13 0 14 0;
#X connect 13 0 32 1;
#X connect 14 0 41 1;
#X connect 15 0 16 0;
#X connect 16 0 18 0;
#X connect 16 1 17 0;
#X connect 16 1 20 0;
#X connect 17 0 7 0;
#X connect 18 0 9 0;
#X connect 18 0 6 0;
#X connect 19 0 13 0;
#X connect 20 0 22 0;
#X connect 21 0 19 0;
#X connect 22 0 21 0;
#X connect 22 1 19 0;
#X connect 28 0 33 0;
#X connect 32 0 0 0;
#X connect 33 0 39 0;
#X connect 33 1 6 0;
#X connect 33 1 9 0;
#X connect 33 2 6 1;
#X connect 33 2 9 1;
#X connect 34 0 40 0;
#X connect 35 0 34 1;
#X connect 35 0 38 1;
#X connect 36 0 40 1;
#X connect 37 0 42 0;
#X connect 38 0 29 0;
#X connect 39 0 34 0;
#X connect 39 1 36 0;
#X connect 39 2 38 2;
#X connect 39 3 35 1;
#X connect 40 0 37 0;
#X connect 41 0 32 0;
#X connect 42 0 35 0;
#X connect 42 1 40 1;
#X connect 42 2 41 0;
#X connect 42 3 33 1;
