#N canvas 616 184 706 811 12;
#X obj 246 78 inlet;
#X obj 252 214 list;
#X obj 228 256 list split 1;
#X obj 434 329 list split 1;
#X obj 434 223 list;
#X obj 437 272 list;
#X obj 433 400 route float;
#X msg 379 473 0;
#X obj 236 389 route float;
#X msg 297 439 0;
#X obj 259 523 *;
#X obj 265 161 t l b b;
#X obj 310 724 f;
#X text 551 325 if finished \, send 0;
#X msg 301 348 bang;
#X text 303 324 if done \, flush;
#X text 139 506 mult eltwise;
#X obj 291 763 outlet;
#X obj 512 80 inlet;
#X text 298 127 bang to reset state;
#X text 15 7 pdkl-dot;
#X text 17 43 dot product between two lists;
#X text 720 14 derek kwan 2017;
#X text 721 33 pdklist;
#X text 720 54 gpl v 3;
#X text 288 53 list 1;
#X text 514 45 list 2;
#X text 14 109 inlets:;
#X text 12 133 1 - list 1 \, 2 - list 2;
#X text 9 236 outlets:;
#X text 11 262 float output;
#X msg 389 574 0;
#X obj 355 614 +;
#X obj 355 639 t f f, f 13;
#X obj 251 339 list;
#X obj 195 292 t b a b;
#X connect 0 0 11 0;
#X connect 1 0 2 0;
#X connect 2 0 35 0;
#X connect 2 1 34 1;
#X connect 2 2 14 0;
#X connect 3 0 6 0;
#X connect 3 1 5 1;
#X connect 3 2 7 0;
#X connect 4 0 5 1;
#X connect 5 0 3 0;
#X connect 6 0 10 1;
#X connect 6 1 7 0;
#X connect 7 0 10 1;
#X connect 8 0 10 0;
#X connect 8 1 9 0;
#X connect 9 0 10 0;
#X connect 10 0 32 0;
#X connect 11 0 1 0;
#X connect 11 1 4 0;
#X connect 11 2 31 0;
#X connect 12 0 17 0;
#X connect 14 0 12 0;
#X connect 18 0 4 1;
#X connect 31 0 32 1;
#X connect 32 0 33 0;
#X connect 33 0 12 1;
#X connect 33 1 32 1;
#X connect 34 0 1 0;
#X connect 35 0 34 0;
#X connect 35 1 8 0;
#X connect 35 2 5 0;
