#N canvas 497 285 798 600 12;
#X obj 608 75 list length;
#X obj 608 100 - 1;
#X obj 556 149 list split;
#X obj 544 30 t a a;
#X obj 261 330 sel msec permsec sec persec samp min permin;
#X msg 506 386 -1;
#X msg 552 388 -1.67e-06;
#X obj 543 1 inlet;
#X text 608 8 tempo msg;
#X obj 110 87 loadbang;
#X obj 291 28 inlet;
#X obj 386 36 inlet;
#X text 377 8 loop(0/1);
#X text 311 9 numvals;
#X obj 76 41 inlet;
#X text 82 8 delaytime;
#X obj 183 38 inlet;
#X text 170 11 remaining list;
#X obj 183 63 list length;
#X obj 145 451 f;
#X obj 54 483 +;
#X obj 221 279 sel 1 0;
#X msg 109 405 0;
#X obj 54 508 outlet;
#X text 201 526 last delay so we make sure the loop bang gets to;
#X text 204 554 bang sync before the syncer;
#X obj 221 230 change;
#X text 199 502 if looping and syncing \, lop off a little delay time
from the;
#X obj 454 43 inlet;
#X text 458 19 syncing, f 36;
#X msg 267 374 -0.5;
#X msg 384 388 -0.0005;
#X msg 110 142 1;
#X msg 648 393 -6e-05;
#X msg 450 391 -0.001;
#X msg 325 388 -0.001;
#X obj 233 163 && \$2;
#X obj 288 97 + 1;
#X obj 222 112 <=;
#X obj 306 65 f \$1;
#X text 270 123 take into account the delay time;
#X obj 228 203 && \$3;
#X obj 620 183 print;
#X connect 0 0 1 0;
#X connect 1 0 2 1;
#X connect 2 1 4 0;
#X connect 2 1 42 0;
#X connect 3 0 2 0;
#X connect 3 1 0 0;
#X connect 4 0 30 0;
#X connect 4 1 35 0;
#X connect 4 2 31 0;
#X connect 4 3 34 0;
#X connect 4 4 5 0;
#X connect 4 5 6 0;
#X connect 4 6 33 0;
#X connect 5 0 19 1;
#X connect 6 0 19 1;
#X connect 7 0 3 0;
#X connect 9 0 30 0;
#X connect 9 0 32 0;
#X connect 9 0 39 0;
#X connect 10 0 39 0;
#X connect 11 0 36 1;
#X connect 14 0 20 0;
#X connect 16 0 18 0;
#X connect 18 0 38 0;
#X connect 19 0 20 1;
#X connect 20 0 23 0;
#X connect 21 0 19 0;
#X connect 21 1 22 0;
#X connect 22 0 20 1;
#X connect 26 0 21 0;
#X connect 28 0 41 1;
#X connect 30 0 19 1;
#X connect 31 0 19 1;
#X connect 32 0 41 1;
#X connect 33 0 19 1;
#X connect 34 0 19 1;
#X connect 35 0 19 1;
#X connect 36 0 41 0;
#X connect 37 0 38 1;
#X connect 38 0 36 0;
#X connect 39 0 37 0;
#X connect 41 0 26 0;
