#N canvas 839 259 1255 637 12;
#X text 27 132 inlet: number of terms \, stepsize \, start;
#X text 36 167 args: stepsize \, start;
#X obj 432 77 inlet;
#X text 488 108 number of terms;
#X obj 432 147 max 1;
#X obj 689 99 inlet;
#X text 746 105 stepsize;
#X obj 894 94 inlet;
#X text 959 97 start;
#X obj 472 484 pdkl-fill, f 28;
#X obj 465 367 f;
#X obj 514 253 + 1;
#X obj 513 292 moses 1;
#X obj 432 102 i;
#X msg 499 224 0;
#X obj 429 250 until;
#X obj 516 364 + 1;
#X obj 472 509 outlet;
#X obj 756 254 f \$1;
#X obj 846 187 f \$2;
#X obj 957 166 loadbang;
#X obj 756 279 t f f;
#X obj 803 304 != 0;
#X obj 756 337 spigot;
#X obj 435 189 t b f b b b, f 31;
#X text 39 25 pdkl-arith - arithmetic series;
#X text 1127 23 derek kwan;
#X text 1134 53 pdklist;
#X text 1117 88 gpl v 3 2017;
#X obj 436 286 i;
#X obj 567 333 t b b;
#X obj 436 311 t f b;
#X connect 2 0 13 0;
#X connect 4 0 24 0;
#X connect 5 0 16 1;
#X connect 7 0 19 1;
#X connect 9 0 17 0;
#X connect 10 0 16 0;
#X connect 10 0 9 0;
#X connect 11 0 12 0;
#X connect 12 0 29 1;
#X connect 12 1 30 0;
#X connect 13 0 4 0;
#X connect 14 0 29 1;
#X connect 15 0 29 0;
#X connect 16 0 10 1;
#X connect 18 0 21 0;
#X connect 19 0 10 1;
#X connect 20 0 18 0;
#X connect 21 0 23 0;
#X connect 21 1 22 0;
#X connect 22 0 23 1;
#X connect 23 0 16 1;
#X connect 24 0 15 0;
#X connect 24 1 12 1;
#X connect 24 2 14 0;
#X connect 24 3 9 2;
#X connect 24 4 19 0;
#X connect 29 0 31 0;
#X connect 30 0 9 1;
#X connect 30 1 15 1;
#X connect 31 0 11 0;
#X connect 31 1 10 0;
