#N canvas 822 299 969 874 12;
#X obj 258 296 pdkl-drip, f 43;
#X obj 264 244 inlet;
#X obj 258 321 i;
#X obj 258 346 moses 1;
#X obj 319 537 f;
#X msg 392 484 0;
#X obj 383 523 + 1;
#X obj 319 455 > 1;
#X obj 418 608 >=;
#X obj 418 633 sel 1;
#X obj 319 505 until;
#X obj 299 389 t f b f b, f 29;
#X obj 503 713 f \$1;
#X obj 422 714 f \$2;
#X msg 443 750 append \$1;
#X obj 474 784 list store;
#X obj 264 269 t a b, f 50;
#X obj 474 809 outlet;
#X text 315 244 list;
#X obj 554 236 inlet;
#X text 607 242 on val;
#X obj 701 234 inlet;
#X text 754 237 off val;
#X text 25 94 inlets: number list (> 0) \, on val \, off val;
#X text 41 135 argts: on val \, off val;
#X text 752 33 derek kwan;
#X text 754 66 pdklist;
#X text 749 93 gpl v 3 2017;
#X obj 374 562 t f f, f 6;
#X msg 423 676 bang;
#X obj 319 480 sel 1;
#X text 19 29 pdkl-numpatt - generate patterns from number lists;
#X connect 0 0 2 0;
#X connect 0 1 15 0;
#X connect 1 0 16 0;
#X connect 2 0 3 0;
#X connect 3 1 11 0;
#X connect 4 0 6 0;
#X connect 5 0 4 1;
#X connect 6 0 28 0;
#X connect 7 0 30 0;
#X connect 8 0 9 0;
#X connect 9 0 10 1;
#X connect 9 1 29 0;
#X connect 10 0 4 0;
#X connect 11 0 7 0;
#X connect 11 1 5 0;
#X connect 11 2 8 1;
#X connect 11 3 12 0;
#X connect 12 0 14 0;
#X connect 13 0 14 0;
#X connect 14 0 15 0;
#X connect 15 0 17 0;
#X connect 16 0 0 0;
#X connect 16 1 15 1;
#X connect 19 0 12 1;
#X connect 21 0 13 1;
#X connect 28 0 4 1;
#X connect 28 1 8 0;
#X connect 29 0 13 0;
#X connect 30 0 10 0;
