#N canvas 839 259 1255 637 12;
#X obj 432 77 inlet;
#X text 488 108 number of terms;
#X obj 432 147 max 1;
#X obj 660 46 inlet;
#X obj 894 94 inlet;
#X text 959 97 start;
#X obj 472 484 pdkl-fill, f 28;
#X obj 465 367 f;
#X obj 514 253 + 1;
#X obj 513 292 moses 1;
#X obj 432 102 i;
#X msg 499 224 0;
#X obj 429 250 until;
#X obj 472 509 outlet;
#X obj 1095 313 f \$1;
#X obj 957 166 loadbang;
#X obj 1095 338 t f f;
#X obj 1142 363 != 0;
#X obj 1095 396 spigot;
#X obj 435 189 t b f b b b, f 31;
#X text 1127 23 derek kwan;
#X text 1134 53 pdklist;
#X text 1117 88 gpl v 3 2017;
#X obj 436 286 i;
#X obj 567 333 t b b;
#X obj 436 311 t f b;
#X obj 516 364 * 1;
#X text 27 132 inlet: number of terms \, multiplier \, start;
#X text 36 167 args: multiplier \, start;
#X text 717 52 multiplier;
#X text 39 25 pdkl-geom - geometric series;
#X obj 830 221 f;
#X obj 957 191 f \$2;
#X obj 955 216 t f f;
#X obj 955 241 != 0;
#X obj 957 295 route 0 1;
#X obj 955 266 pack f f;
#X msg 957 320 1;
#X connect 0 0 10 0;
#X connect 2 0 19 0;
#X connect 3 0 26 1;
#X connect 4 0 31 1;
#X connect 6 0 13 0;
#X connect 7 0 6 0;
#X connect 7 0 26 0;
#X connect 8 0 9 0;
#X connect 9 0 23 1;
#X connect 9 1 24 0;
#X connect 10 0 2 0;
#X connect 11 0 23 1;
#X connect 12 0 23 0;
#X connect 14 0 16 0;
#X connect 15 0 32 0;
#X connect 15 0 14 0;
#X connect 16 0 18 0;
#X connect 16 1 17 0;
#X connect 17 0 18 1;
#X connect 18 0 26 1;
#X connect 19 0 12 0;
#X connect 19 1 9 1;
#X connect 19 2 11 0;
#X connect 19 3 6 2;
#X connect 19 4 31 0;
#X connect 23 0 25 0;
#X connect 24 0 6 1;
#X connect 24 1 12 1;
#X connect 25 0 8 0;
#X connect 25 1 7 0;
#X connect 26 0 7 1;
#X connect 31 0 7 1;
#X connect 32 0 33 0;
#X connect 33 0 34 0;
#X connect 33 1 36 1;
#X connect 34 0 36 0;
#X connect 35 0 37 0;
#X connect 35 1 31 1;
#X connect 36 0 35 0;
#X connect 37 0 31 1;
